<?xml version="1.0" encoding="UTF-8"?>
<svg version="1.1" xmlns="http://www.w3.org/2000/svg" width="772" height="210">
<path d="M0 0 C254.76 0 509.52 0 772 0 C772 69.3 772 138.6 772 210 C517.24 210 262.48 210 0 210 C0 140.7 0 71.4 0 0 Z " fill="#FEFEFD" transform="translate(0,0)"/>
<path d="M0 0 C0.66 0 1.32 0 2 0 C1.20167595 8.30257015 -0.50942353 16.49160368 -3.625 24.25 C-4.69200818 27.16002232 -5.24166483 29.14179577 -5.5625 32.125 C-5.97233273 35.75494705 -6.80993825 38.56982201 -8 42 C-8.32641822 43.45528125 -8.63780393 44.91398165 -8.9375 46.375 C-9.55920569 49.29075147 -10.29119739 51.75446596 -11.375 54.5625 C-13.80469459 61.19743523 -15.28628746 68.14514985 -17 75 C-3.8 75 9.4 75 23 75 C23 75.99 23 76.98 23 78 C22.34 78 21.68 78 21 78 C20.63261719 78.76570313 20.63261719 78.76570313 20.2578125 79.546875 C18.5685308 82.84149893 16.72057145 86.04144469 14.875 89.25 C14.50246094 89.8996875 14.12992187 90.549375 13.74609375 91.21875 C12.83170879 92.81306224 11.91598744 94.4066079 11 96 C10.34 96 9.68 96 9 96 C8.773125 97.010625 8.54625 98.02125 8.3125 99.0625 C7.10868341 103.31483054 4.91186883 106.69614883 2 110 C1.01 110.495 1.01 110.495 0 111 C-0.4640625 112.175625 -0.4640625 112.175625 -0.9375 113.375 C-2.02213212 116.05467935 -2.9629319 117.04441462 -5 119 C-6.01351664 120.65848177 -7.01120795 122.32665961 -8 124 C-8.84677429 125.17204314 -9.70142032 126.33842624 -10.5625 127.5 C-12.05533189 129.54933136 -13.03994001 131.10650669 -13.9375 133.5 C-15.01283221 136.03019343 -16.10934675 137.3586545 -17.9375 139.375 C-20.39366592 142.12047392 -21.77898195 144.57853234 -23.09765625 148.05078125 C-25.41893616 153.0651478 -29.11531392 157.45355617 -32.390625 161.87890625 C-35.68352838 166.37017637 -38.38195274 171.08698365 -41 176 C-41.66 176 -42.32 176 -43 176 C-43.33 176.99 -43.66 177.98 -44 179 C-45.21392375 175.48625375 -44.77097528 173.23868067 -43.77734375 169.6953125 C-43.48891602 168.64746582 -43.20048828 167.59961914 -42.90332031 166.52001953 C-42.58459961 165.39966309 -42.26587891 164.27930664 -41.9375 163.125 C-41.61749023 161.96983887 -41.29748047 160.81467773 -40.96777344 159.62451172 C-40.30706374 157.24079399 -39.64248221 154.85814621 -38.97412109 152.4765625 C-37.5421263 147.36588434 -36.14531767 142.245789 -34.75 137.125 C-34.50137207 136.21661377 -34.25274414 135.30822754 -33.99658203 134.37231445 C-32.2391125 127.93601482 -30.60028613 121.47734862 -29 115 C-28.01 111.37 -27.02 107.74 -26 104 C-39.2 104 -52.4 104 -66 104 C-65.02823728 100.1129491 -63.94571513 98.10565933 -61.76171875 94.82421875 C-60.77848633 93.33438477 -60.77848633 93.33438477 -59.77539062 91.81445312 C-59.08638672 90.78255859 -58.39738281 89.75066406 -57.6875 88.6875 C-52.20473134 80.46884141 -52.20473134 80.46884141 -47.16967773 71.97387695 C-44.07812306 66.75675745 -40.57256834 61.78061625 -37.1875 56.75 C-35.61684131 54.41256051 -34.04775292 52.07407853 -32.48046875 49.734375 C-32.09476715 49.15861725 -31.70906555 48.5828595 -31.31167603 47.98965454 C-28.4114092 43.64685429 -25.60496753 39.2504032 -22.81567383 34.8359375 C-19.21323596 29.20921728 -15.47059301 23.67399872 -11.75 18.125 C-10.16008739 15.75351848 -8.57177522 13.38097626 -6.984375 11.0078125 C-6.29053711 9.97285645 -5.59669922 8.93790039 -4.88183594 7.87158203 C-3.65185654 5.99469858 -2.47950847 4.07842014 -1.37597656 2.12451172 C-0.69486816 1.07287842 -0.69486816 1.07287842 0 0 Z " fill="#F4AA47" transform="translate(142,18)"/>
<path d="M0 0 C0 0.66 0 1.32 0 2 C0.94875 2 1.8975 2 2.875 2 C9.7779679 2.96809916 15.51494378 9.1224373 20 14.125 C24.87103131 21.12710751 24.73591555 28.75956294 24 37 C21.71372971 46.13272295 16.12239912 54.99172228 8 60 C5.60403095 60.77539451 3.30607346 61.28395791 0.8203125 61.67578125 C-1.01414815 61.82342874 -1.01414815 61.82342874 -2 63 C-9.54147345 64.03031398 -15.64383362 63.97383061 -22 59.5 C-25.40017712 56.75934 -27.456205 54.3808062 -29.5 50.5625 C-30.7109119 48.41597961 -30.7109119 48.41597961 -33 47 C-39.21783183 45.69197169 -45.6783223 45.89985461 -52 46 C-51.15941591 42.00505912 -49.4178158 39.29702155 -47 36 C-46.01 35.505 -46.01 35.505 -45 35 C-44.87625 34.401875 -44.7525 33.80375 -44.625 33.1875 C-43.79164359 30.27075256 -42.18957048 29.06077221 -40 27 C-37.70423673 24.42874514 -36.86414741 22.59244224 -35.75 19.25 C-33.22232235 12.11928831 -26.92718245 5.40122182 -20.1484375 2.09765625 C-13.5293117 -0.51388975 -7.02420047 -0.29312738 0 0 Z " fill="#F4A946" transform="translate(204,76)"/>
<path d="M0 0 C4.43872708 3.19881819 8.64758226 6.67910205 12.36328125 10.703125 C12.36328125 11.363125 12.36328125 12.023125 12.36328125 12.703125 C18.30328125 12.703125 24.24328125 12.703125 30.36328125 12.703125 C30.36328125 13.693125 30.36328125 14.683125 30.36328125 15.703125 C29.70328125 15.703125 29.04328125 15.703125 28.36328125 15.703125 C28.10546875 16.23421875 27.84765625 16.7653125 27.58203125 17.3125 C26.08883522 20.24146144 24.49144307 23.09694282 22.86328125 25.953125 C21.950625 27.56960937 21.950625 27.56960937 21.01953125 29.21875 C20.47296875 30.03859375 19.92640625 30.8584375 19.36328125 31.703125 C18.70328125 31.703125 18.04328125 31.703125 17.36328125 31.703125 C17.36328125 33.023125 17.36328125 34.343125 17.36328125 35.703125 C16.70328125 35.703125 16.04328125 35.703125 15.36328125 35.703125 C15.09644531 36.26257813 14.82960937 36.82203125 14.5546875 37.3984375 C9.84795227 46.50326959 4.14281265 53.0098865 -5.48828125 56.8359375 C-13.78486947 59.121102 -22.36701522 58.61406761 -30.0625 54.7734375 C-31.63671875 53.703125 -31.63671875 53.703125 -32.63671875 51.703125 C-33.39984375 51.27 -34.16296875 50.836875 -34.94921875 50.390625 C-37.95868664 48.50095912 -39.65521323 46.63868873 -41.63671875 43.703125 C-41.63671875 42.713125 -41.63671875 41.723125 -41.63671875 40.703125 C-32.72671875 40.703125 -23.81671875 40.703125 -14.63671875 40.703125 C-13.97671875 39.053125 -13.31671875 37.403125 -12.63671875 35.703125 C-11.98458336 34.36262448 -11.32291906 33.02651132 -10.63671875 31.703125 C-9.97671875 31.703125 -9.31671875 31.703125 -8.63671875 31.703125 C-7.93690399 25.40479214 -9.07682245 21.23091969 -12.44384766 15.84228516 C-16.09449003 12.28105954 -19.84340233 12.52163512 -24.76171875 12.46875 C-26.61796875 12.52289063 -26.61796875 12.52289063 -28.51171875 12.578125 C-29.77242187 12.57554688 -31.033125 12.57296875 -32.33203125 12.5703125 C-35.43662029 12.5703125 -38.53355267 12.61602528 -41.63671875 12.703125 C-40.64087396 7.63635423 -37.5436919 4.54199196 -33.88671875 1.015625 C-23.77324576 -4.88390091 -10.28272588 -6.0140985 0 0 Z " fill="#F5AA48" transform="translate(58.63671875,80.296875)"/>
<path d="M0 0 C4.34159838 -0.07429025 8.6828577 -0.12866741 13.02490234 -0.16479492 C14.50120491 -0.17985923 15.97746288 -0.20031482 17.45361328 -0.22631836 C19.57856258 -0.26280739 21.70291901 -0.27974933 23.828125 -0.29296875 C25.7447998 -0.31653442 25.7447998 -0.31653442 27.70019531 -0.34057617 C31.20099139 0.02074452 32.62902507 0.4292444 35 3 C35.69399843 8.84941538 34.75510684 14.47003749 33.8125 20.25 C33.71187256 20.93537842 33.61124512 21.62075684 33.50756836 22.3269043 C32.58970929 27.38654839 30.98689865 29.81770666 27 33 C23.58666992 33.56762695 23.58666992 33.56762695 19.73046875 33.48828125 C19.04946609 33.48120651 18.36846344 33.47413177 17.66682434 33.46684265 C15.50590005 33.43900069 13.34763178 33.37629527 11.1875 33.3125 C9.71683448 33.28740332 8.24612807 33.26459253 6.77539062 33.24414062 C3.18274043 33.18921188 -0.40837028 33.10301647 -4 33 C-4.28144331 25.8231955 -3.19770859 19.06486215 -2 12 C-1.80921875 10.84371094 -1.6184375 9.68742187 -1.421875 8.49609375 C-0.95360579 5.66306504 -0.47950909 2.83114411 0 0 Z " fill="#F4B558" transform="translate(584,71)"/>
<path d="M0 0 C4.34157052 -0.09905303 8.68253854 -0.17155301 13.02490234 -0.21972656 C14.5012559 -0.23981301 15.97753019 -0.26708801 17.45361328 -0.30175781 C19.57864962 -0.35041184 21.70263234 -0.37299673 23.828125 -0.390625 C25.1059082 -0.41157227 26.38369141 -0.43251953 27.70019531 -0.45410156 C31 0 31 0 33.42871094 1.80175781 C35.66556447 4.93112842 35.34147212 7.24380668 35 11 C34.67 11.99 34.34 12.98 34 14 C33.57336898 17.1513333 33.18837961 20.3023943 32.83789062 23.46289062 C32.38007217 27.21849076 31.72842362 29.54315277 30 33 C26.7 33 23.4 33 20 33 C20.33 28.38 20.66 23.76 21 19 C17.04 19 13.08 19 9 19 C8.86722656 19.92683594 8.73445312 20.85367188 8.59765625 21.80859375 C8.42105469 23.00613281 8.24445312 24.20367187 8.0625 25.4375 C7.88847656 26.63246094 7.71445312 27.82742187 7.53515625 29.05859375 C7 32 7 32 6 33 C4.31391034 33.07205511 2.62499341 33.08386068 0.9375 33.0625 C0.01839844 33.05347656 -0.90070312 33.04445312 -1.84765625 33.03515625 C-2.55792969 33.02355469 -3.26820313 33.01195312 -4 33 C-3.33432507 21.91306929 -1.63964829 10.97623447 0 0 Z " fill="#F4B55A" transform="translate(534,71)"/>
<path d="M0 0 C4.34157052 -0.09905303 8.68253854 -0.17155301 13.02490234 -0.21972656 C14.5012559 -0.23981301 15.97753019 -0.26708801 17.45361328 -0.30175781 C19.57864962 -0.35041184 21.70263234 -0.37299673 23.828125 -0.390625 C25.1059082 -0.41157227 26.38369141 -0.43251953 27.70019531 -0.45410156 C31 0 31 0 33.4309082 1.83935547 C36.74012051 6.39615163 34.75406972 12.73205841 34 18 C31.72558824 31.27441176 31.72558824 31.27441176 30 33 C26.99668982 33.14193337 24.00782866 33.04236378 21 33 C21.33 28.05 21.66 23.1 22 18 C17.71 18 13.42 18 9 18 C8.01 22.95 7.02 27.9 6 33 C2.7 33 -0.6 33 -4 33 C-4.24095248 28.0203154 -4.17850028 24.04283092 -2.5625 19.3125 C-1.12659866 15.07233146 -0.67167606 11.13156337 -0.40234375 6.66796875 C-0.32363037 5.41653076 -0.24491699 4.16509277 -0.16381836 2.87573242 C-0.1097583 1.92674072 -0.05569824 0.97774902 0 0 Z " fill="#F3B04D" transform="translate(323,71)"/>
<path d="M0 0 C4.58312084 -0.11605098 9.16586449 -0.18720362 13.75 -0.25 C15.05195312 -0.28351563 16.35390625 -0.31703125 17.6953125 -0.3515625 C18.94570313 -0.36445312 20.19609375 -0.37734375 21.484375 -0.390625 C22.63647461 -0.41157227 23.78857422 -0.43251953 24.97558594 -0.45410156 C28.65075399 0.09770765 29.80765643 1.0477499 32 4 C32.390625 7.234375 32.390625 7.234375 32.25 10.75 C32.21390625 11.92046875 32.1778125 13.0909375 32.140625 14.296875 C32.09421875 15.18890625 32.0478125 16.0809375 32 17 C31.34 17 30.68 17 30 17 C30 17.66 30 18.32 30 19 C28.02 19 26.04 19 24 19 C24.3609375 19.75925781 24.721875 20.51851562 25.09375 21.30078125 C25.78984375 22.79158203 25.78984375 22.79158203 26.5 24.3125 C26.9640625 25.29863281 27.428125 26.28476563 27.90625 27.30078125 C29 30 29 30 29 33 C21.75590551 33.48293963 21.75590551 33.48293963 18.75 31.5625 C16.12190238 27.7142142 13 22.77668581 13 18 C11.35 18.33 9.7 18.66 8 19 C7.86722656 19.92683594 7.73445312 20.85367188 7.59765625 21.80859375 C7.42105469 23.00613281 7.24445312 24.20367187 7.0625 25.4375 C6.88847656 26.63246094 6.71445312 27.82742187 6.53515625 29.05859375 C6 32 6 32 5 33 C1.66672158 33.1424478 -1.66453893 33.04222103 -5 33 C-4.38074426 25.54205192 -3.26293646 18.23749511 -1.9375 10.875 C-1.75123047 9.823125 -1.56496094 8.77125 -1.37304688 7.6875 C-0.91867754 5.12439092 -0.46094303 2.56193355 0 0 Z " fill="#F4B353" transform="translate(678,71)"/>
<path d="M0 0 C4.58312084 -0.11605098 9.16586449 -0.18720362 13.75 -0.25 C15.05195313 -0.28351563 16.35390625 -0.31703125 17.6953125 -0.3515625 C18.94570313 -0.36445312 20.19609375 -0.37734375 21.484375 -0.390625 C22.63647461 -0.41157227 23.78857422 -0.43251953 24.97558594 -0.45410156 C28 0 28 0 30.37988281 1.78613281 C32.35800711 4.48921164 32.49511555 6.58413645 32.33984375 9.89453125 C31.7965319 13.26056673 30.52129938 15.95740124 29 19 C27.68 19 26.36 19 25 19 C25.28875 19.84304687 25.5775 20.68609375 25.875 21.5546875 C26.24625 22.65039062 26.6175 23.74609375 27 24.875 C27.37125 25.96554688 27.7425 27.05609375 28.125 28.1796875 C29 31 29 31 29 33 C25.7 33 22.4 33 19 33 C17.99515796 31.04414675 16.99626195 29.08523763 16 27.125 C15.443125 26.03445312 14.88625 24.94390625 14.3125 23.8203125 C13 21 13 21 13 19 C11.35 19 9.7 19 8 19 C7.86722656 19.67546875 7.73445313 20.3509375 7.59765625 21.046875 C7.42105469 21.93890625 7.24445313 22.8309375 7.0625 23.75 C6.80146484 25.07257813 6.80146484 25.07257813 6.53515625 26.421875 C6.07752809 28.62650703 5.54609986 30.81560057 5 33 C1.7 33 -1.6 33 -5 33 C-3.73201021 21.91627746 -2.0361826 10.96823696 0 0 Z " fill="#F3B250" transform="translate(484,71)"/>
<path d="M0 0 C4.58312084 -0.11605098 9.16586449 -0.18720362 13.75 -0.25 C15.05195313 -0.28351563 16.35390625 -0.31703125 17.6953125 -0.3515625 C18.94570313 -0.36445312 20.19609375 -0.37734375 21.484375 -0.390625 C22.63647461 -0.41157227 23.78857422 -0.43251953 24.97558594 -0.45410156 C28 0 28 0 30.39428711 1.82446289 C32.67609961 4.91602914 32.23756181 6.92928026 31.8125 10.6875 C31.69519531 11.84636719 31.57789063 13.00523438 31.45703125 14.19921875 C31 17 31 17 30 18 C28.00041636 18.04080783 25.99954746 18.04254356 24 18 C24 19.65 24 21.3 24 23 C24.639375 23.165 25.27875 23.33 25.9375 23.5 C28 25 28 25 28.48828125 26.9140625 C28.7275978 28.93575155 28.86893028 30.96841939 29 33 C26.03 33 23.06 33 20 33 C19.01780373 31.23084525 18.03934641 29.45961431 17.0625 27.6875 C16.51722656 26.70136719 15.97195313 25.71523437 15.41015625 24.69921875 C14 22 14 22 13 19 C11.68 19 10.36 19 9 19 C7.23384882 23.70973649 6.51405169 28.03083364 6 33 C2.7 33 -0.6 33 -4 33 C-3.41152509 21.87985348 -1.74178643 10.98749553 0 0 Z " fill="#F4B559" transform="translate(273,71)"/>
<path d="M0 0 C4.41731521 -0.1077394 8.83201394 -0.18720629 13.25 -0.25 C15.13138672 -0.30027344 15.13138672 -0.30027344 17.05078125 -0.3515625 C18.25605469 -0.36445312 19.46132813 -0.37734375 20.703125 -0.390625 C21.81333008 -0.41157227 22.92353516 -0.43251953 24.06738281 -0.45410156 C27.66272844 0.10262029 28.856295 1.10619565 31 4 C30.75 6.75 30.75 6.75 30 9 C26.7 9 23.4 9 20 9 C20 8.01 20 7.02 20 6 C16.7 6 13.4 6 10 6 C10 8.31 10 10.62 10 13 C11.25296875 12.95359375 12.5059375 12.9071875 13.796875 12.859375 C15.44789281 12.82185187 17.09893642 12.78545229 18.75 12.75 C19.9875 12.69972656 19.9875 12.69972656 21.25 12.6484375 C27.36584015 12.54979492 27.36584015 12.54979492 30.55859375 14.81640625 C32.45723944 17.69267439 32.37528005 19.62247955 32 23 C31.505 23.495 31.505 23.495 31 24 C30.67 26.97 30.34 29.94 30 33 C18.78 33 7.56 33 -4 33 C-4 31.02 -4 29.04 -4 27 C4.25 27 12.5 27 21 27 C21.33 24.03 21.66 21.06 22 18 C14.08 18 6.16 18 -2 18 C-1.34 12.06 -0.68 6.12 0 0 Z " fill="#F3B559" transform="translate(728,71)"/>
<path d="M0 0 C3.73089167 2.31839754 7.01355797 5.02711594 9 9 C9.41150721 13.91434573 9.57627734 18.48348067 7.8125 23.125 C5.60451242 25.40912508 4.12474407 25.74664237 1 26 C1 26.66 1 27.32 1 28 C-4.7680213 28.24544771 -12.0240714 28.42306113 -16.703125 24.61328125 C-19.80019993 20.76059467 -19.58084165 15.82201785 -19.5234375 11.09765625 C-18.75902063 6.57390568 -16.94043208 4.30778514 -13.48046875 1.38671875 C-8.97139768 -1.13410051 -4.95047328 -1.3559992 0 0 Z " fill="#FEFCFA" transform="translate(202,93)"/>
<path d="M0 0 C9.24 0 18.48 0 28 0 C27.67 1.65 27.34 3.3 27 5 C18.585 5.495 18.585 5.495 10 6 C9.67 8.31 9.34 10.62 9 13 C13.62 13 18.24 13 23 13 C23 14.65 23 16.3 23 18 C21.05909174 19.94090826 17.52706098 19.39919435 14.9375 19.5625 C13.64714844 19.64628906 12.35679687 19.73007813 11.02734375 19.81640625 C10.02832031 19.87699219 9.02929688 19.93757813 8 20 C7.67 22.31 7.34 24.62 7 27 C12.61 27 18.22 27 24 27 C24 28.65 24 30.3 24 32 C23 33 23 33 20.31616211 33.11352539 C19.14835205 33.10828857 17.98054199 33.10305176 16.77734375 33.09765625 C15.51728516 33.09443359 14.25722656 33.09121094 12.95898438 33.08789062 C11.61848891 33.07953403 10.27799412 33.07106907 8.9375 33.0625 C7.59310058 33.0574866 6.2486994 33.05292342 4.90429688 33.04882812 C1.60282059 33.03699488 -1.69856803 33.02050971 -5 33 C-5.20585264 27.75075761 -5.10283893 23.86933978 -3 19 C-2.32783916 15.74877125 -1.85533374 12.4718309 -1.375 9.1875 C-0.92125 6.155625 -0.4675 3.12375 0 0 Z " fill="#F4B559" transform="translate(635,71)"/>
<path d="M0 0 C2.64 0 5.28 0 8 0 C8.33 2.31 8.66 4.62 9 7 C9.99 5.02 10.98 3.04 12 1 C14.31 1 16.62 1 19 1 C19.33 4.3 19.66 7.6 20 11 C20.66 11 21.32 11 22 11 C22.66 7.7 23.32 4.4 24 1 C25.98 1 27.96 1 30 1 C29.85888117 3.75031587 29.71228835 6.50015418 29.5625 9.25 C29.52318359 10.02730469 29.48386719 10.80460938 29.44335938 11.60546875 C29.40146484 12.35957031 29.35957031 13.11367187 29.31640625 13.890625 C29.27974854 14.58188477 29.24309082 15.27314453 29.20532227 15.98535156 C29 18 29 18 28 22 C24.04 22 20.08 22 16 22 C15.34 19.36 14.68 16.72 14 14 C11.87961365 16.61514317 9.86908256 19.19637616 8 22 C3.65413172 22.39507893 1.67996503 22.45331002 -2 20 C-1.85834107 17.60385425 -1.71181159 15.20817103 -1.5625 12.8125 C-1.52318359 12.13896484 -1.48386719 11.46542969 -1.44335938 10.77148438 C-1.21072435 7.10300898 -0.82792989 3.58305794 0 0 Z " fill="#F3B356" transform="translate(350,124)"/>
<path d="M0 0 C3.96 0 7.92 0 12 0 C15 5.75 15 5.75 15 8 C17.02846099 6.04148594 18.82556642 4.28241628 20.3125 1.875 C22 0 22 0 24.48046875 -0.390625 C25.82044922 -0.32101563 25.82044922 -0.32101563 27.1875 -0.25 C28.08855469 -0.21390625 28.98960937 -0.1778125 29.91796875 -0.140625 C30.60503906 -0.09421875 31.29210937 -0.0478125 32 0 C32 3 32 3 29.9375 5.125 C29.48503906 5.56328125 29.03257812 6.0015625 28.56640625 6.453125 C21.44141518 13.48927578 19.03098115 19.22006962 17.5078125 28.9375 C17 32 17 32 16 33 C14.31391034 33.07205511 12.62499341 33.08386068 10.9375 33.0625 C10.01839844 33.05347656 9.09929687 33.04445312 8.15234375 33.03515625 C7.44207031 33.02355469 6.73179687 33.01195312 6 33 C6.2475 31.2984375 6.2475 31.2984375 6.5 29.5625 C6.67274488 28.04234507 6.83917431 26.52146209 7 25 C7.13728516 23.97132812 7.13728516 23.97132812 7.27734375 22.921875 C7.77273628 16.39719288 5.28969789 11.57939578 2.41015625 5.8203125 C1 3 1 3 0 0 Z " fill="#F3AF4C" transform="translate(372,71)"/>
<path d="M0 0 C9.9 0 19.8 0 30 0 C30 1.98 30 3.96 30 6 C27.03 6 24.06 6 21 6 C20.34235255 11.10384626 20.34235255 11.10384626 19.78125 16.21875 C18.359375 30.640625 18.359375 30.640625 16 33 C14.31391034 33.07205511 12.62499341 33.08386068 10.9375 33.0625 C10.01839844 33.05347656 9.09929687 33.04445312 8.15234375 33.03515625 C7.44207031 33.02355469 6.73179687 33.01195312 6 33 C6.51856202 23.897872 7.46232654 14.98717886 9 6 C7.700625 6.020625 6.40125 6.04125 5.0625 6.0625 C3.70834367 6.08399454 2.35243917 6.07148199 1 6 C0.67 5.67 0.34 5.34 0 5 C0 3.35 0 1.7 0 0 Z " fill="#F3AF4B" transform="translate(439,71)"/>
<path d="M0 0 C3.29159316 -0.05790353 6.58305603 -0.09356261 9.875 -0.125 C10.81214844 -0.14175781 11.74929688 -0.15851563 12.71484375 -0.17578125 C13.61074219 -0.18222656 14.50664062 -0.18867187 15.4296875 -0.1953125 C16.25710449 -0.20578613 17.08452148 -0.21625977 17.93701172 -0.22705078 C20 0 20 0 22 2 C22.57732109 8.4659962 21.27817911 13.94452909 19 20 C18 21 18 21 16.05053711 21.11352539 C15.2178833 21.10828857 14.38522949 21.10305176 13.52734375 21.09765625 C12.62822266 21.09443359 11.72910156 21.09121094 10.80273438 21.08789062 C9.85720703 21.07951172 8.91167969 21.07113281 7.9375 21.0625 C6.98810547 21.05798828 6.03871094 21.05347656 5.06054688 21.04882812 C2.70696935 21.0370011 0.35351523 21.02052025 -2 21 C-1.85738906 18.81228756 -1.71075539 16.62483718 -1.5625 14.4375 C-1.48128906 13.21933594 -1.40007812 12.00117188 -1.31640625 10.74609375 C-1.0105741 7.12519214 -0.5497926 3.58982228 0 0 Z " fill="#F3AE4A" transform="translate(442,125)"/>
<path d="M0 0 C9.24 0 18.48 0 28 0 C30.25 6.75 30.25 6.75 29 10 C26.525 9.505 26.525 9.505 24 9 C23.67 7.68 23.34 6.36 23 5 C18.71 5 14.42 5 10 5 C9.67 7.97 9.34 10.94 9 14 C12.3 14 15.6 14 19 14 C17.02 14.99 17.02 14.99 15 16 C15.33 16.66 15.66 17.32 16 18 C13.03 18 10.06 18 7 18 C6.01 22.62 5.02 27.24 4 32 C1.36 32 -1.28 32 -4 32 C-3.53893697 21.07757587 -2.04175304 10.74139645 0 0 Z " fill="#F3B04D" transform="translate(484,71)"/>
<path d="M0 0 C10.23 0 20.46 0 31 0 C31 1.65 31 3.3 31 5 C24.4 5 17.8 5 11 5 C10.34 7.97 9.68 10.94 9 14 C12.3 14 15.6 14 19 14 C19.33 14.99 19.66 15.98 20 17 C16.04 17 12.08 17 8 17 C7.67 18.65 7.34 20.3 7 22 C6.34 22 5.68 22 5 22 C4.67 23.32 4.34 24.64 4 26 C3.67 26 3.34 26 3 26 C2.67 27.65 2.34 29.3 2 31 C2.99 31.33 3.98 31.66 5 32 C2.36 32 -0.28 32 -3 32 C-2.88272617 29.4786127 -2.75617134 26.95817597 -2.625 24.4375 C-2.5940625 23.75236328 -2.563125 23.06722656 -2.53125 22.36132812 C-2.12384794 14.79043989 -1.01385784 7.60393379 0 0 Z " fill="#F3B04D" transform="translate(534,71)"/>
<path d="M0 0 C2.27024968 -0.08097324 4.54132075 -0.13917704 6.8125 -0.1875 C8.07707031 -0.22230469 9.34164063 -0.25710937 10.64453125 -0.29296875 C14 0 14 0 15.96484375 1.09765625 C17.5526717 4.01566459 17.08271931 6.36290415 16.75 9.625 C16.64171875 10.79289062 16.5334375 11.96078125 16.421875 13.1640625 C16 16 16 16 15 17 C13.00041636 17.04080783 10.99954746 17.04254356 9 17 C9 18.65 9 20.3 9 22 C9.9590625 22.2475 9.9590625 22.2475 10.9375 22.5 C13 24 13 24 13.48828125 25.9140625 C13.7275978 27.93575155 13.86893028 29.96841939 14 32 C11.03 32 8.06 32 5 32 C1.08355629 25.811421 -0.98525061 20.2547009 -2 13 C1.465 12.505 1.465 12.505 5 12 C5.66 9.36 6.32 6.72 7 4 C3.37 4 -0.26 4 -4 4 C-2.68 3.34 -1.36 2.68 0 2 C0 1.34 0 0.68 0 0 Z " fill="#F3B150" transform="translate(288,72)"/>
<path d="M0 0 C4.393125 -0.061875 4.393125 -0.061875 8.875 -0.125 C9.79651855 -0.14320801 10.71803711 -0.16141602 11.66748047 -0.18017578 C12.39338379 -0.1851709 13.11928711 -0.19016602 13.8671875 -0.1953125 C14.61081543 -0.20578613 15.35444336 -0.21625977 16.12060547 -0.22705078 C18 0 18 0 20 2 C20.1953125 4.6015625 20.1953125 4.6015625 20.125 7.625 C20.10695313 8.62789062 20.08890625 9.63078125 20.0703125 10.6640625 C20.04710937 11.43492187 20.02390625 12.20578125 20 13 C19.01 13 18.02 13 17 13 C17.33 15.64 17.66 18.28 18 21 C15.69 21 13.38 21 11 21 C10.81824219 20.43410156 10.63648438 19.86820313 10.44921875 19.28515625 C10.19785156 18.55167969 9.94648437 17.81820312 9.6875 17.0625 C9.44386719 16.33160156 9.20023438 15.60070312 8.94921875 14.84765625 C8.08759559 12.64067976 8.08759559 12.64067976 5 12 C4.67 14.97 4.34 17.94 4 21 C2.02 21 0.04 21 -2 21 C-1.01 10.605 -1.01 10.605 0 0 Z " fill="#F4B456" transform="translate(629,125)"/>
<path d="M0 0 C10.23 0 20.46 0 31 0 C31.495 1.98 31.495 1.98 32 4 C31.34 4.99 30.68 5.98 30 7 C30.99 7.33 31.98 7.66 33 8 C32.34 9.98 31.68 11.96 31 14 C29.35 12.68 27.7 11.36 26 10 C25.01 11.485 25.01 11.485 24 13 C20.7421875 13.29296875 20.7421875 13.29296875 16.875 13.1875 C14.95300781 13.14689453 14.95300781 13.14689453 12.9921875 13.10546875 C12.00476563 13.07066406 11.01734375 13.03585938 10 13 C9.875 7.25 9.875 7.25 11 5 C9.68 5 8.36 5 7 5 C6.67 5.99 6.34 6.98 6 8 C5.67 7.01 5.34 6.02 5 5 C4.34 5 3.68 5 3 5 C3.33 4.01 3.66 3.02 4 2 C3.34 1.67 2.68 1.34 2 1 C1.96261719 1.87140625 1.92523438 2.7428125 1.88671875 3.640625 C1.49075282 10.81459601 0.64021997 17.45200702 -1.28125 24.37890625 C-1.97421756 26.90597817 -2.51585937 29.42567531 -3 32 C-0.03 32 2.94 32 6 32 C6 32.33 6 32.66 6 33 C2.7 33 -0.6 33 -4 33 C-4.24095248 28.0203154 -4.17850028 24.04283092 -2.5625 19.3125 C-0.40568974 12.67635086 -0.40568974 12.67635086 0 0 Z " fill="#F4B75E" transform="translate(323,71)"/>
<path d="M0 0 C2.95887459 -0.08069658 5.9155659 -0.14034665 8.875 -0.1875 C9.71675781 -0.21263672 10.55851563 -0.23777344 11.42578125 -0.26367188 C12.23144531 -0.27333984 13.03710938 -0.28300781 13.8671875 -0.29296875 C14.98262939 -0.31653442 14.98262939 -0.31653442 16.12060547 -0.34057617 C17.05090576 -0.17199097 17.05090576 -0.17199097 18 0 C18.66 0.99 19.32 1.98 20 3 C16.37 3 12.74 3 9 3 C9 3.66 9 4.32 9 5 C8.34 5 7.68 5 7 5 C7 7.97 7 10.94 7 14 C9.64 14 12.28 14 15 14 C14.67 14.66 14.34 15.32 14 16 C11.35139573 16.59355614 8.70802678 16.74209269 6 17 C5.34 21.95 4.68 26.9 4 32 C0.7 32 -2.6 32 -6 32 C-5.16183497 21.10385455 -3.10616133 10.47489036 0 0 Z " fill="#F3AD48" transform="translate(679,72)"/>
<path d="M0 0 C2.64 0 5.28 0 8 0 C8.042721 1.66611905 8.04063832 3.33382885 8 5 C7.67 5.33 7.34 5.66 7 6 C6.92851801 7.35243917 6.91600546 8.70834367 6.9375 10.0625 C6.958125 11.361875 6.97875 12.66125 7 14 C7.39832031 13.24074219 7.79664063 12.48148438 8.20703125 11.69921875 C8.73683594 10.70535156 9.26664063 9.71148437 9.8125 8.6875 C10.33457031 7.70136719 10.85664062 6.71523437 11.39453125 5.69921875 C12.79347394 3.34722507 13.82858182 1.6396423 16 0 C19.6875 -0.1875 19.6875 -0.1875 23 0 C22.57961469 4.90449525 20.42795092 6.65565764 17 10 C16.28272222 11.64551962 15.61674772 13.31422289 15 15 C13.5625 18.3125 13.5625 18.3125 11 21 C7.2733784 21.6349059 3.72915219 21.61560608 0 21 C-2 19 -2 19 -2.01171875 16.6796875 C-1.90472656 15.75414062 -1.79773438 14.82859375 -1.6875 13.875 C-1.52507813 12.40740234 -1.52507813 12.40740234 -1.359375 10.91015625 C-1.24078125 9.94980469 -1.1221875 8.98945313 -1 8 C-0.90203125 7.17371094 -0.8040625 6.34742188 -0.703125 5.49609375 C-0.4800939 3.66264692 -0.24183825 1.83106101 0 0 Z " fill="#F5C072" transform="translate(561,125)"/>
<path d="M0 0 C4.62 0 9.24 0 14 0 C13.125 13.875 13.125 13.875 12 15 C11.63239269 17.32817964 11.29758419 19.6618385 11 22 C6.38 22 1.76 22 -3 22 C-2.4183462 14.53544285 -1.4316515 7.34914435 0 0 Z " fill="#FDF7ED" transform="translate(594,76)"/>
<path d="M0 0 C2.79192205 -0.05380578 5.5828141 -0.09357669 8.375 -0.125 C9.1690625 -0.14175781 9.963125 -0.15851563 10.78125 -0.17578125 C12.85492015 -0.19335473 14.92883241 -0.10335168 17 0 C19 2 19 2 19 6 C16.69 6 14.38 6 12 6 C12 5.34 12 4.68 12 4 C10.02 4 8.04 4 6 4 C6 5.65 6 7.3 6 9 C6.84304688 8.97679687 7.68609375 8.95359375 8.5546875 8.9296875 C10.19824219 8.90261719 10.19824219 8.90261719 11.875 8.875 C13.51082031 8.84019531 13.51082031 8.84019531 15.1796875 8.8046875 C18 9 18 9 20 11 C20.20146402 14.693507 20.17353189 17.47940432 19 21 C12.07 21 5.14 21 -2 21 C-2 20.01 -2 19.02 -2 18 C2.62 17.67 7.24 17.34 12 17 C12.33 15.35 12.66 13.7 13 12 C8.38 12 3.76 12 -1 12 C-1 4.125 -1 4.125 0 0 Z " fill="#F5BB66" transform="translate(665,125)"/>
<path d="M0 0 C5.94 0 11.88 0 18 0 C18 1.32 18 2.64 18 4 C14.37 4 10.74 4 7 4 C7 5.32 7 6.64 7 8 C9.64 8 12.28 8 15 8 C15 9.32 15 10.64 15 12 C11.7 12 8.4 12 5 12 C5 13.65 5 15.3 5 17 C8.3 17 11.6 17 15 17 C15 18.32 15 19.64 15 21 C9.06 21 3.12 21 -3 21 C-2.50170023 13.77465331 -1.75582841 7.02331365 0 0 Z " fill="#F4BA61" transform="translate(598,125)"/>
<path d="M0 0 C5.94 0 11.88 0 18 0 C18 0.99 18 1.98 18 3 C14.04 3 10.08 3 6 3 C6 4.98 6 6.96 6 9 C8.64 9 11.28 9 14 9 C14 9.99 14 10.98 14 12 C11.03 12 8.06 12 5 12 C5 13.98 5 15.96 5 18 C7.97 18 10.94 18 14 18 C14 18.99 14 19.98 14 21 C8.72 21 3.44 21 -2 21 C-2.24218448 13.73446559 -1.31556657 7.15339324 0 0 Z " fill="#F4B559" transform="translate(478,125)"/>
<path d="M0 0 C1.98 0 3.96 0 6 0 C5.360625 0.28875 4.72125 0.5775 4.0625 0.875 C1.84793921 1.82823451 1.84793921 1.82823451 1 4 C1.66 4 2.32 4 3 4 C3.33 4.66 3.66 5.32 4 6 C4.33 5.34 4.66 4.68 5 4 C5.99 4.33 6.98 4.66 8 5 C7.24129032 12.46064516 7.24129032 12.46064516 5.9375 15.375 C4.68834539 18.8726329 4.89858097 22.01157725 5.02734375 25.6953125 C5 28 5 28 4 31 C1.03 31 -1.94 31 -5 31 C-4.88444496 29.29100181 -4.75706997 27.58280131 -4.625 25.875 C-4.55539062 24.92367187 -4.48578125 23.97234375 -4.4140625 22.9921875 C-3.97196011 19.79737208 -3.01859752 17.05579257 -2 14 C-1.57502095 11.54981213 -1.20061368 9.09036073 -0.875 6.625 C-0.70742188 5.37976563 -0.53984375 4.13453125 -0.3671875 2.8515625 C-0.24601562 1.91054687 -0.12484375 0.96953125 0 0 Z " fill="#F2AE48" transform="translate(325,72)"/>
<path d="M0 0 C2.64 0 5.28 0 8 0 C7.34 5.61 6.68 11.22 6 17 C9.3 17 12.6 17 16 17 C16 18.32 16 19.64 16 21 C10.06 21 4.12 21 -2 21 C-2 10.875 -2 10.875 -1 5.4375 C-0.814375 4.40496094 -0.62875 3.37242187 -0.4375 2.30859375 C-0.293125 1.54675781 -0.14875 0.78492187 0 0 Z " fill="#F5BC69" transform="translate(509,125)"/>
<path d="M0 0 C4.29 0 8.58 0 13 0 C13 0.99 13 1.98 13 3 C11.35 3 9.7 3 8 3 C8 6.3 8 9.6 8 13 C12.29 13 16.58 13 21 13 C20.01 13.495 20.01 13.495 19 14 C19 14.66 19 15.32 19 16 C12.4 16 5.8 16 -1 16 C-1 6 -1 6 0 0 Z " fill="#F3AD46" transform="translate(729,72)"/>
<path d="M0 0 C5.28 0 10.56 0 16 0 C16 0.66 16 1.32 16 2 C12.7 2.33 9.4 2.66 6 3 C5.67 4.65 5.34 6.3 5 8 C7.64 8 10.28 8 13 8 C13 8.99 13 9.98 13 11 C10.03 11 7.06 11 4 11 C4 12.98 4 14.96 4 17 C6.97 17 9.94 17 13 17 C13 17.66 13 18.32 13 19 C7.72 19 2.44 19 -3 19 C-2.6920761 16.20775806 -2.37887563 13.41628573 -2.0625 10.625 C-1.97548828 9.8309375 -1.88847656 9.036875 -1.79882812 8.21875 C-1.11328125 2.2265625 -1.11328125 2.2265625 0 0 Z " fill="#F4B252" transform="translate(395,126)"/>
<path d="M0 0 C4.41644598 -0.11608127 8.83250017 -0.1872132 13.25 -0.25 C15.13138672 -0.30027344 15.13138672 -0.30027344 17.05078125 -0.3515625 C18.25605469 -0.36445312 19.46132813 -0.37734375 20.703125 -0.390625 C21.81333008 -0.41157227 22.92353516 -0.43251953 24.06738281 -0.45410156 C27.66272844 0.10262029 28.856295 1.10619565 31 4 C30.75 6.75 30.75 6.75 30 9 C26.7 9 23.4 9 20 9 C20 8.01 20 7.02 20 6 C16.7 6 13.4 6 10 6 C10 8.31 10 10.62 10 13 C15.94 13 21.88 13 28 13 C28 13.33 28 13.66 28 14 C21.73 14 15.46 14 9 14 C9 10.7 9 7.4 9 4 C10.65 4 12.3 4 14 4 C14 3.01 14 2.02 14 1 C9.71 1 5.42 1 1 1 C1 2.98 1 4.96 1 7 C0.67 7 0.34 7 0 7 C0 4.69 0 2.38 0 0 Z " fill="#F5BA66" transform="translate(728,71)"/>
<path d="M0 0 C2.31 0 4.62 0 7 0 C6.88513575 2.37587624 6.75841844 4.75015171 6.625 7.125 C6.57859375 8.12273437 6.57859375 8.12273437 6.53125 9.140625 C6.28080367 13.39821262 5.52471803 17.02085783 4 21 C1.69 21 -0.62 21 -3 21 C-3.15639125 15.93683317 -2.62766071 11.49601562 -1.5 6.5625 C-1.2215625 5.32628906 -0.943125 4.09007812 -0.65625 2.81640625 C-0.4396875 1.88699219 -0.223125 0.95757812 0 0 Z " fill="#F4B254" transform="translate(541,125)"/>
<path d="M0 0 C6.27 0 12.54 0 19 0 C18.67 1.65 18.34 3.3 18 5 C15.03 5 12.06 5 9 5 C9 5.66 9 6.32 9 7 C10.7015625 6.9690625 10.7015625 6.9690625 12.4375 6.9375 C16 7 16 7 17 8 C17 9.65 17 11.3 17 13 C13.7 13 10.4 13 7 13 C7 13.99 7 14.98 7 16 C9.97 16 12.94 16 16 16 C16 17.65 16 19.3 16 21 C10.06 21 4.12 21 -2 21 C-2 15 -2 15 0 13 C-0.33 15.31 -0.66 17.62 -1 20 C4.28 20 9.56 20 15 20 C15 19.34 15 18.68 15 18 C12.03 18 9.06 18 6 18 C6 16.02 6 14.04 6 12 C8.97 12 11.94 12 15 12 C15 11.01 15 10.02 15 9 C12.36 9 9.72 9 7 9 C6.957279 7.33388095 6.95936168 5.66617115 7 4 C8 3 8 3 10.28515625 2.90234375 C11.65994141 2.91974609 11.65994141 2.91974609 13.0625 2.9375 C13.98160156 2.94652344 14.90070313 2.95554687 15.84765625 2.96484375 C16.55792969 2.97644531 17.26820313 2.98804687 18 3 C18 2.34 18 1.68 18 1 C12.72 1 7.44 1 2 1 C1.67 3.31 1.34 5.62 1 8 C0.67 8 0.34 8 0 8 C0 5.36 0 2.72 0 0 Z " fill="#F8DAAB" transform="translate(393,125)"/>
<path d="M0 0 C6.27 0 12.54 0 19 0 C19 0.66 19 1.32 19 2 C19.99 2.33 20.98 2.66 22 3 C19.375 6.9375 16.75 10.875 14.125 14.8125 C13.74939941 15.37590088 13.37379883 15.93930176 12.98681641 16.51977539 C9.99121094 21.01318359 6.99560547 25.5065918 4 30 C3.67 29.34 3.34 28.68 3 28 C2.54625 28.825 2.0925 29.65 1.625 30.5 C0.820625 31.7375 0.820625 31.7375 0 33 C-0.66 33 -1.32 33 -2 33 C-0.7580393 29.56072421 0.55740284 26.74792181 3 24 C3.66 24 4.32 24 5 24 C5 22.68 5 21.36 5 20 C5.66 20 6.32 20 7 20 C7.185625 19.21625 7.37125 18.4325 7.5625 17.625 C9.5672749 12.56948069 12.50679572 8.1687768 16 4 C16.66 4 17.32 4 18 4 C18 3.01 18 2.02 18 1 C12.06 1 6.12 1 0 1 C0 0.67 0 0.34 0 0 Z " fill="#FBEBD6" transform="translate(71,92)"/>
<path d="M0 0 C9.9 0 19.8 0 30 0 C30 1.98 30 3.96 30 6 C27.03 6 24.06 6 21 6 C20.34235255 11.10384626 20.34235255 11.10384626 19.78125 16.21875 C18.359375 30.640625 18.359375 30.640625 16 33 C14.31391034 33.07205511 12.62499341 33.08386068 10.9375 33.0625 C10.01839844 33.05347656 9.09929687 33.04445312 8.15234375 33.03515625 C7.44207031 33.02355469 6.73179687 33.01195312 6 33 C6 31.02 6 29.04 6 27 C6.33 27 6.66 27 7 27 C7 28.65 7 30.3 7 32 C9.64 32 12.28 32 15 32 C15.0501123 31.44014404 15.10022461 30.88028809 15.15185547 30.3034668 C15.38413587 27.76392044 15.62941785 25.22579309 15.875 22.6875 C15.95363281 21.80642578 16.03226562 20.92535156 16.11328125 20.01757812 C16.19707031 19.17001953 16.28085937 18.32246094 16.3671875 17.44921875 C16.47716064 16.27879028 16.47716064 16.27879028 16.58935547 15.0847168 C17 13 17 13 19 10 C19.38499891 8.34450469 19.72793135 6.6777567 20 5 C22.97 5 25.94 5 29 5 C29 3.68 29 2.36 29 1 C19.76 1 10.52 1 1 1 C1 1.99 1 2.98 1 4 C3.97 4 6.94 4 10 4 C10 6.31 10 8.62 10 11 C9.67 11 9.34 11 9 11 C9 9.35 9 7.7 9 6 C7.700625 6.020625 6.40125 6.04125 5.0625 6.0625 C3.70834367 6.08399454 2.35243917 6.07148199 1 6 C0.67 5.67 0.34 5.34 0 5 C0 3.35 0 1.7 0 0 Z " fill="#F8CB8A" transform="translate(439,71)"/>
<path d="M0 0 C1.98 0 3.96 0 6 0 C5.43393721 4.69023454 4.81462495 9.34500026 4 14 C5.32 13.34 6.64 12.68 8 12 C8.04241723 14.33294775 8.04092937 16.66702567 8 19 C7 20 7 20 3.5 20.125 C0 20 0 20 -1 19 C-1.10022387 16.93951522 -1.12966196 14.87541556 -1.125 12.8125 C-1.12757813 11.68457031 -1.13015625 10.55664062 -1.1328125 9.39453125 C-1.00688006 6.17584633 -0.60422627 3.16019928 0 0 Z " fill="#F3B04E" transform="translate(351,126)"/>
<path d="M0 0 C2.64 0 5.28 0 8 0 C8.3690205 9.41002278 8.3690205 9.41002278 6 14 C3.36 14 0.72 14 -2 14 C-1.85795259 12.41632253 -1.71119847 10.83306682 -1.5625 9.25 C-1.48128906 8.36828125 -1.40007812 7.4865625 -1.31640625 6.578125 C-1.03761535 4.30649548 -0.61209423 2.20148177 0 0 Z " fill="#FEFCFA" transform="translate(449,129)"/>
<path d="M0 0 C1.32 0.66 2.64 1.32 4 2 C2.50328459 6.49014624 0.16631659 10.47848764 -3 14 C-3.66 14 -4.32 14 -5 14 C-5.0825 14.7425 -5.165 15.485 -5.25 16.25 C-6.15571817 19.57096663 -7.4474049 20.7477102 -10 23 C-10.515625 23.5775 -11.03125 24.155 -11.5625 24.75 C-13 26 -13 26 -16 26 C-15.34 24.35 -14.68 22.7 -14 21 C-13.34 21 -12.68 21 -12 21 C-11.731875 20.28070313 -11.46375 19.56140625 -11.1875 18.8203125 C-9.99575554 15.98991942 -8.60111416 13.49282165 -7 10.875 C-6.2265625 9.60269531 -6.2265625 9.60269531 -5.4375 8.3046875 C-4.32241191 6.5169104 -3.16876903 4.75315355 -2 3 C-1.34 3 -0.68 3 0 3 C0 2.01 0 1.02 0 0 Z " fill="#FAE4C7" transform="translate(165,93)"/>
<path d="M0 0 C2.64 0 5.28 0 8 0 C8.39622401 4.22638947 7.27688086 7.22078729 5.734375 11.0625 C4.87110456 13.34006457 4.37558749 15.59624008 4 18 C4.66 18 5.32 18 6 18 C6 18.66 6 19.32 6 20 C4.33388095 20.042721 2.66617115 20.04063832 1 20 C0 19 0 19 -0.11352539 17.14233398 C-0.10828857 16.35157471 -0.10305176 15.56081543 -0.09765625 14.74609375 C-0.09443359 13.89208984 -0.09121094 13.03808594 -0.08789062 12.15820312 C-0.07951172 11.26037109 -0.07113281 10.36253906 -0.0625 9.4375 C-0.05798828 8.53580078 -0.05347656 7.63410156 -0.04882812 6.70507812 C-0.03700225 4.46998686 -0.0205222 2.23502563 0 0 Z " fill="#F4B85E" transform="translate(561,125)"/>
<path d="M0 0 C4.95 0 9.9 0 15 0 C15 1.98 15 3.96 15 6 C13 8 13 8 9.9609375 8.1953125 C8.77757812 8.17210938 7.59421875 8.14890625 6.375 8.125 C5.18648437 8.10695313 3.99796875 8.08890625 2.7734375 8.0703125 C1.85820313 8.04710938 0.94296875 8.02390625 0 8 C0 5.36 0 2.72 0 0 Z " fill="#FCEFDC" transform="translate(544,76)"/>
<path d="M0 0 C4.62 0 9.24 0 14 0 C14 6 14 6 13 8 C8.38 8 3.76 8 -1 8 C-1 2 -1 2 0 0 Z " fill="#FEFDFC" transform="translate(334,76)"/>
<path d="M0 0 C5.61 0 11.22 0 17 0 C17.33 1.65 17.66 3.3 18 5 C15.69 5 13.38 5 11 5 C11 4.34 11 3.68 11 3 C9.02 3 7.04 3 5 3 C5 4.98 5 6.96 5 9 C7.31 9 9.62 9 12 9 C12 9.33 12 9.66 12 10 C7.71 10 3.42 10 -1 10 C-0.67 6.7 -0.34 3.4 0 0 Z " fill="#F4B65B" transform="translate(666,126)"/>
<path d="M0 0 C1.32 0 2.64 0 4 0 C4.19818283 6.70518586 4.30844801 12.65176798 2 19 C-1.3 19 -4.6 19 -8 19 C-7.67 17.68 -7.34 16.36 -7 15 C-6.38125 14.938125 -5.7625 14.87625 -5.125 14.8125 C-2.83148545 14.18758442 -2.83148545 14.18758442 -1.8125 12 C-0.73781007 8.0319141 -0.33854696 4.08929088 0 0 Z " fill="#F3AF4C" transform="translate(375,126)"/>
<path d="M0 0 C0.66 0 1.32 0 2 0 C1.34034961 6.86036401 -0.2362764 13.34443923 -2 20 C-2.94314127 16.58389775 -3.08065117 13.54865136 -3 10 C-3.4125 10.70125 -3.825 11.4025 -4.25 12.125 C-9.5 20.75 -9.5 20.75 -12 22 C-12.65555119 24.52733235 -12.65555119 24.52733235 -13 27 C-14.32 27.33 -15.64 27.66 -17 28 C-15.68486441 24.44329938 -14.11366593 21.4076399 -12.03125 18.2421875 C-11.46019531 17.36949219 -10.88914063 16.49679688 -10.30078125 15.59765625 C-9.70652344 14.69917969 -9.11226562 13.80070312 -8.5 12.875 C-7.90574219 11.96878906 -7.31148437 11.06257813 -6.69921875 10.12890625 C-4.47807519 6.7445453 -2.24549994 3.36824991 0 0 Z " fill="#F4C47D" transform="translate(142,18)"/>
<path d="M0 0 C2.97 0.495 2.97 0.495 6 1 C5.01 6.61 4.02 12.22 3 18 C1.35 18.33 -0.3 18.66 -2 19 C-2.21432579 12.35590042 -1.51233701 6.46794133 0 0 Z " fill="#F4AE48" transform="translate(443,126)"/>
<path d="M0 0 C3.63 0 7.26 0 11 0 C11.04241723 2.33294775 11.04092937 4.66702567 11 7 C10 8 10 8 7.49609375 8.09765625 C5.98208984 8.08025391 5.98208984 8.08025391 4.4375 8.0625 C3.42558594 8.05347656 2.41367187 8.04445313 1.37109375 8.03515625 C0.58863281 8.02355469 -0.19382812 8.01195313 -1 8 C-0.67 5.36 -0.34 2.72 0 0 Z " fill="#FCF0DE" transform="translate(494,76)"/>
<path d="M0 0 C4.62 0 9.24 0 14 0 C14 1.98 14 3.96 14 6 C13.67 6 13.34 6 13 6 C13 4.35 13 2.7 13 1 C9.04 1 5.08 1 1 1 C0.86722656 1.92683594 0.73445312 2.85367188 0.59765625 3.80859375 C0.33275391 5.60490234 0.33275391 5.60490234 0.0625 7.4375 C-0.11152344 8.63246094 -0.28554688 9.82742187 -0.46484375 11.05859375 C-1 14 -1 14 -2 15 C-5.33618231 15.14257189 -8.65975606 15.04228157 -12 15 C-11.67 11.04 -11.34 7.08 -11 3 C-10.67 3 -10.34 3 -10 3 C-9.875 10.625 -9.875 10.625 -11 14 C-9.35 13.67 -7.7 13.34 -6 13 C-6 11.35 -6 9.7 -6 8 C-5.34 7.67 -4.68 7.34 -4 7 C-3.67 6.01 -3.34 5.02 -3 4 C-2.34 4 -1.68 4 -1 4 C-0.67 2.68 -0.34 1.36 0 0 Z " fill="#F7C782" transform="translate(542,89)"/>
<path d="M0 0 C2.4375 0.1875 2.4375 0.1875 3.4375 1.1875 C3.53669077 2.78913916 3.56719898 4.39529918 3.5625 6 C3.56507813 6.87269531 3.56765625 7.74539062 3.5703125 8.64453125 C3.44864834 10.97404215 3.09264709 12.95688015 2.4375 15.1875 C1.7775 14.8575 1.1175 14.5275 0.4375 14.1875 C0.7675 13.5275 1.0975 12.8675 1.4375 12.1875 C-1.61163228 11.17638907 -1.61163228 11.17638907 -4.5625 12.1875 C-4.61645478 10.56286158 -4.65527195 8.93771459 -4.6875 7.3125 C-4.71070313 6.40757813 -4.73390625 5.50265625 -4.7578125 4.5703125 C-4.47165573 1.07919991 -3.45791449 0.25301813 0 0 Z " fill="#F3AD47" transform="translate(704.5625,71.8125)"/>
<path d="M0 0 C3.29188269 -0.05376941 6.58289426 -0.09356106 9.875 -0.125 C10.81214844 -0.14175781 11.74929688 -0.15851563 12.71484375 -0.17578125 C13.61074219 -0.18222656 14.50664062 -0.18867187 15.4296875 -0.1953125 C16.25710449 -0.20578613 17.08452148 -0.21625977 17.93701172 -0.22705078 C20 0 20 0 22 2 C22.33546255 7.19966951 22.37650833 9.24698333 20 14 C20 10.37 20 6.74 20 3 C18.68 2.67 17.36 2.34 16 2 C16 4.31 16 6.62 16 9 C15.67 9 15.34 9 15 9 C15 7.35 15 5.7 15 4 C12.36 4 9.72 4 7 4 C7 3.34 7 2.68 7 2 C4.03 1.505 4.03 1.505 1 1 C1.04125 2.093125 1.0825 3.18625 1.125 4.3125 C1 8 1 8 -1 11 C-0.67 7.37 -0.34 3.74 0 0 Z " fill="#F5C378" transform="translate(442,125)"/>
<path d="M0 0 C3.96 0 7.92 0 12 0 C12 2.31 12 4.62 12 7 C8.04 7 4.08 7 0 7 C0 4.69 0 2.38 0 0 Z " fill="#FDF3E4" transform="translate(687,77)"/>
<path d="M0 0 C7.92 0 15.84 0 24 0 C23.67 2.97 23.34 5.94 23 9 C14.75 9 6.5 9 -2 9 C-2 8.67 -2 8.34 -2 8 C5.92 8 13.84 8 22 8 C22 6.02 22 4.04 22 2 C14.74 2 7.48 2 0 2 C0 1.34 0 0.68 0 0 Z " fill="#FBE9CC" transform="translate(726,89)"/>
<path d="M0 0 C5.94 0 11.88 0 18 0 C18 1.32 18 2.64 18 4 C14.37 4 10.74 4 7 4 C7 5.32 7 6.64 7 8 C9.64 8 12.28 8 15 8 C14.67 9.32 14.34 10.64 14 12 C14 11.01 14 10.02 14 9 C11.03 9 8.06 9 5 9 C5 6.36 5 3.72 5 1 C3.68 1 2.36 1 1 1 C0.67 1.99 0.34 2.98 0 4 C0 2.68 0 1.36 0 0 Z " fill="#F6C67E" transform="translate(598,125)"/>
<path d="M0 0 C0.99 0 1.98 0 3 0 C3 2.97 3 5.94 3 9 C2.01 9 1.02 9 0 9 C0.66 11.97 1.32 14.94 2 18 C0.35 18 -1.3 18 -3 18 C-3.50403768 16.70990357 -4.00309926 15.41786211 -4.5 14.125 C-4.7784375 13.40570313 -5.056875 12.68640625 -5.34375 11.9453125 C-6 10 -6 10 -6 8 C-4.35 7.67 -2.7 7.34 -1 7 C-0.67 4.69 -0.34 2.38 0 0 Z " fill="#F3AC46" transform="translate(644,127)"/>
<path d="M0 0 C2.375 -0.125 2.375 -0.125 5 0 C5.66 0.66 6.32 1.32 7 2 C9.06874034 2.6425235 9.06874034 2.6425235 11 3 C11 3.66 11 4.32 11 5 C11.804375 5.2475 12.60875 5.495 13.4375 5.75 C16 7 16 7 16.8125 9.125 C16.874375 9.74375 16.93625 10.3625 17 11 C15.35 11 13.7 11 12 11 C11.67 10.01 11.34 9.02 11 8 C10.29875 7.9175 9.5975 7.835 8.875 7.75 C5.28584036 6.81369749 2.89951721 5.29264151 0 3 C0 2.01 0 1.02 0 0 Z " fill="#F7C783" transform="translate(185,144)"/>
<path d="M0 0 C9.24 0 18.48 0 28 0 C26.02 0.99 26.02 0.99 24 2 C23.15813297 4.52560108 22.73748686 6.57332877 22.4375 9.1875 C22.293125 10.445625 22.14875 11.70375 22 13 C21.67 13 21.34 13 21 13 C21 10.69 21 8.38 21 6 C17.37 6 13.74 6 10 6 C10 5.34 10 4.68 10 4 C13.3 3.67 16.6 3.34 20 3 C18.48578999 1.48578999 17.07527232 1.78690144 14.96484375 1.68359375 C14.15595703 1.64169922 13.34707031 1.59980469 12.51367188 1.55664062 C11.66353516 1.51732422 10.81339844 1.47800781 9.9375 1.4375 C9.08349609 1.39431641 8.22949219 1.35113281 7.34960938 1.30664062 C5.23327963 1.20023298 3.11666187 1.09958269 1 1 C1 2.98 1 4.96 1 7 C0.67 7 0.34 7 0 7 C0 4.69 0 2.38 0 0 Z " fill="#F6BE6C" transform="translate(678,71)"/>
<path d="M0 0 C1.32 0.33 2.64 0.66 4 1 C3.67 2.65 3.34 4.3 3 6 C2.01 6.33 1.02 6.66 0 7 C-0.95117358 9.03277473 -0.95117358 9.03277473 -1.5625 11.4375 C-2.80269058 15.80269058 -2.80269058 15.80269058 -5 18 C-5.99 18 -6.98 18 -8 18 C-8 16.68 -8 15.36 -8 14 C-7.34 14 -6.68 14 -6 14 C-5.88785156 13.27425781 -5.77570313 12.54851563 -5.66015625 11.80078125 C-4.97038613 8.87436007 -3.94489186 6.77712191 -2.4375 4.1875 C-1.98246094 3.39730469 -1.52742187 2.60710938 -1.05859375 1.79296875 C-0.53458984 0.90544922 -0.53458984 0.90544922 0 0 Z " fill="#F8C47D" transform="translate(165,25)"/>
<path d="M0 0 C1.13732426 3.40401948 0.83989957 5.77456664 0.0625 9.25 C-0.13214844 10.14203125 -0.32679688 11.0340625 -0.52734375 11.953125 C-0.68332031 12.62859375 -0.83929688 13.3040625 -1 14 C3.455 13.505 3.455 13.505 8 13 C8 13.66 8 14.32 8 15 C9.32 15 10.64 15 12 15 C12 13.68 12 12.36 12 11 C12.66 11 13.32 11 14 11 C13.125 15.875 13.125 15.875 12 17 C10.5112814 17.08669432 9.018555 17.10703494 7.52734375 17.09765625 C6.62822266 17.09443359 5.72910156 17.09121094 4.80273438 17.08789062 C3.85720703 17.07951172 2.91167969 17.07113281 1.9375 17.0625 C0.98810547 17.05798828 0.03871094 17.05347656 -0.93945312 17.04882812 C-3.29303065 17.0370011 -5.64648477 17.02052025 -8 17 C-8 14.69 -8 12.38 -8 10 C-7.67 10 -7.34 10 -7 10 C-7 11.98 -7 13.96 -7 16 C-5.68 15.67 -4.36 15.34 -3 15 C-2.86722656 14.16855469 -2.73445313 13.33710938 -2.59765625 12.48046875 C-2.42105469 11.39378906 -2.24445313 10.30710938 -2.0625 9.1875 C-1.88847656 8.10855469 -1.71445312 7.02960938 -1.53515625 5.91796875 C-1 3 -1 3 0 0 Z " fill="#F3BF70" transform="translate(448,129)"/>
<path d="M0 0 C1.37478516 0.01740234 1.37478516 0.01740234 2.77734375 0.03515625 C3.69644531 0.04417969 4.61554688 0.05320312 5.5625 0.0625 C6.27277344 0.07410156 6.98304688 0.08570312 7.71484375 0.09765625 C7.71484375 2.40765625 7.71484375 4.71765625 7.71484375 7.09765625 C4.08484375 7.09765625 0.45484375 7.09765625 -3.28515625 7.09765625 C-3.32769981 5.09810879 -3.32596408 3.09723989 -3.28515625 1.09765625 C-2.28515625 0.09765625 -2.28515625 0.09765625 0 0 Z " fill="#FDF6EB" transform="translate(286.28515625,76.90234375)"/>
<path d="M0 0 C1.734375 0.1015625 1.734375 0.1015625 4 1 C5.5968364 3.11551683 6.92707925 5.10153619 8.25 7.375 C8.79527344 8.26058594 8.79527344 8.26058594 9.3515625 9.1640625 C11.04174684 11.98527245 12 13.65629056 12 17 C9.75 17.0625 9.75 17.0625 7 16 C5.7531009 13.76778903 4.86367989 11.53129458 3.9921875 9.12890625 C3.07186559 6.67246714 3.07186559 6.67246714 0 5 C-0.1875 2.375 -0.1875 2.375 0 0 Z " fill="#F8BF73" transform="translate(157,172)"/>
<path d="M0 0 C9.24 0 18.48 0 28 0 C27.67 1.65 27.34 3.3 27 5 C21.06 5.33 15.12 5.66 9 6 C9 5.34 9 4.68 9 4 C14.445 3.505 14.445 3.505 20 3 C20 2.67 20 2.34 20 2 C13.73 1.67 7.46 1.34 1 1 C0.67 2.32 0.34 3.64 0 5 C0 3.35 0 1.7 0 0 Z " fill="#F5BB64" transform="translate(635,71)"/>
<path d="M0 0 C1.32 0 2.64 0 4 0 C4 0.99 4 1.98 4 3 C3.01 3.66 2.02 4.32 1 5 C0.525625 5.825 0.05125 6.65 -0.4375 7.5 C-2.1467321 10.23477136 -3.15353098 10.71449786 -6 12 C-6.99 13.485 -6.99 13.485 -8 15 C-8.99 15 -9.98 15 -11 15 C-10.42473475 11.14129768 -8.64227602 9.10501432 -6.0625 6.25 C-5.35222656 5.45078125 -4.64195312 4.6515625 -3.91015625 3.828125 C-2 2 -2 2 0 2 C0 1.34 0 0.68 0 0 Z " fill="#F6C884" transform="translate(184,40)"/>
<path d="M0 0 C0.99 0 1.98 0 3 0 C2.30058404 3.14737182 1.23921302 6.02588876 0 9 C-0.66 9 -1.32 9 -2 9 C-2.103125 9.763125 -2.20625 10.52625 -2.3125 11.3125 C-3.04711194 14.18416484 -3.6716065 15.23042094 -6 17 C-6.66 17 -7.32 17 -8 17 C-7.67 15.02 -7.34 13.04 -7 11 C-6.34 11 -5.68 11 -5 11 C-4.9175 10.29875 -4.835 9.5975 -4.75 8.875 C-3.81369749 5.28584036 -2.29264151 2.89951721 0 0 Z " fill="#F6C783" transform="translate(81,172)"/>
<path d="M0 0 C2 1 2 1 4 3 C4.69403768 8.9488944 3.65149984 12.69700032 1 18 C-0.32 18 -1.64 18 -3 18 C-2.67 19.98 -2.34 21.96 -2 24 C-2.66 23.67 -3.32 23.34 -4 23 C-4.40729228 20.67843403 -4.74438677 18.3431213 -5 16 C-3.35 16 -1.7 16 0 16 C0 14.68 0 13.36 0 12 C-0.66 12 -1.32 12 -2 12 C-1.67 10.68 -1.34 9.36 -1 8 C-0.34 8 0.32 8 1 8 C1.33 7.01 1.66 6.02 2 5 C1.34 4.67 0.68 4.34 0 4 C0 2.68 0 1.36 0 0 Z " fill="#F7C173" transform="translate(512,72)"/>
<path d="M0 0 C0.33 0 0.66 0 1 0 C1.125 2.375 1.125 2.375 1 5 C-1 7 -1 7 -4.6953125 7.1953125 C-6.17200108 7.182009 -7.64862358 7.15814835 -9.125 7.125 C-9.87910156 7.11597656 -10.63320313 7.10695313 -11.41015625 7.09765625 C-13.27357254 7.0740687 -15.13682593 7.03819719 -17 7 C-17.33 8.65 -17.66 10.3 -18 12 C-13.38 12 -8.76 12 -4 12 C-4 13.65 -4 15.3 -4 17 C-4.33 15.68 -4.66 14.36 -5 13 C-9.62 13 -14.24 13 -19 13 C-19 6 -19 6 -18 5 C-15.14122091 4.76298761 -12.30116703 4.57780818 -9.4375 4.4375 C-8.63119141 4.39431641 -7.82488281 4.35113281 -6.99414062 4.30664062 C-4.99631195 4.20024738 -2.9981793 4.09959112 -1 4 C-0.67 2.68 -0.34 1.36 0 0 Z " fill="#FCE6C6" transform="translate(663,71)"/>
<path d="M0 0 C4.39037321 0.43903732 6.82464331 3.38054039 9.75 6.375 C10.25660156 6.87 10.76320313 7.365 11.28515625 7.875 C15 11.61988292 15 11.61988292 15 15 C10.71657993 14.52406444 8.84426611 12.05238315 6 9 C5.0925 8.154375 4.185 7.30875 3.25 6.4375 C1.11767389 4.12748005 0.33978908 3.05810168 0 0 Z " fill="#F7BF73" transform="translate(53,40)"/>
<path d="M0 0 C2.97085779 0.31830619 3.87187168 0.84536237 5.8125 3.1875 C6.534375 4.115625 7.25625 5.04375 8 6 C9.83163351 7.57844875 11.70044711 9.086482 13.609375 10.5703125 C15 12 15 12 15 15 C10.60962679 14.56096268 8.17535669 11.61945961 5.25 8.625 C4.74339844 8.13 4.23679688 7.635 3.71484375 7.125 C0 3.38011708 0 3.38011708 0 0 Z " fill="#F5C378" transform="translate(173,160)"/>
<path d="M0 0 C0 1.32 0 2.64 0 4 C-1.794375 4.61875 -1.794375 4.61875 -3.625 5.25 C-7.4863336 6.67835172 -10.58597494 8.69751798 -14 11 C-14.99 11 -15.98 11 -17 11 C-16.86328125 9.234375 -16.86328125 9.234375 -16 7 C-13.41796875 5.078125 -13.41796875 5.078125 -10.1875 3.25 C-8.60001953 2.32960937 -8.60001953 2.32960937 -6.98046875 1.390625 C-4 0 -4 0 0 0 Z " fill="#F7BD75" transform="translate(56,144)"/>
<path d="M0 0 C2.64 0 5.28 0 8 0 C8.33 3.96 8.66 7.92 9 12 C8.01 12.66 7.02 13.32 6 14 C5.85714286 5.42857143 5.85714286 5.42857143 7 2 C5.02 2 3.04 2 1 2 C0.67 7.94 0.34 13.88 0 20 C-0.66 20 -1.32 20 -2 20 C-1.85834107 17.60385425 -1.71181159 15.20817103 -1.5625 12.8125 C-1.52318359 12.13896484 -1.48386719 11.46542969 -1.44335938 10.77148438 C-1.21072435 7.10300898 -0.82792989 3.58305794 0 0 Z " fill="#F5CC8E" transform="translate(350,124)"/>
<path d="M0 0 C0.99 0.33 1.98 0.66 3 1 C4.16796875 3.765625 4.16796875 3.765625 5.1875 7.25 C5.53167969 8.38953125 5.87585938 9.5290625 6.23046875 10.703125 C6.91342623 13.62909513 7.16257399 16.0176081 7 19 C5.68 18.67 4.36 18.34 3 18 C2.49645133 15.56318413 1.99703244 13.12564561 1.5 10.6875 C1.35691406 9.99720703 1.21382812 9.30691406 1.06640625 8.59570312 C0.47374956 5.67475227 0 2.98891878 0 0 Z " fill="#F8C279" transform="translate(139,180)"/>
<path d="M0 0 C0.99 0.33 1.98 0.66 3 1 C2 4 2 4 -0.625 5.5625 C-8.71001826 9.00611889 -16.16408555 10.10987706 -25 9 C-27.57554658 7.567477 -28.36800339 6.51076402 -30 4 C-28.71029297 4.48919922 -28.71029297 4.48919922 -27.39453125 4.98828125 C-19.3087941 7.3981845 -10.26139808 6.12018957 -2 5 C-1.855625 4.360625 -1.71125 3.72125 -1.5625 3.0625 C-1 1 -1 1 0 0 Z " fill="#F9CE94" transform="translate(213,130)"/>
<path d="M0 0 C1 2 1 2 0 8 C4.62 8 9.24 8 14 8 C14 8.33 14 8.66 14 9 C12.60974609 9.07347656 12.60974609 9.07347656 11.19140625 9.1484375 C9.99386719 9.22320312 8.79632813 9.29796875 7.5625 9.375 C5.77005859 9.47941406 5.77005859 9.47941406 3.94140625 9.5859375 C2.97074219 9.72257812 2.00007813 9.85921875 1 10 C0.67 10.66 0.34 11.32 0 12 C4.29 12 8.58 12 13 12 C13 13.98 13 15.96 13 18 C12.67 18 12.34 18 12 18 C12 16.35 12 14.7 12 13 C7.71 13 3.42 13 -1 13 C-1.33 15.31 -1.66 17.62 -2 20 C-2.33 20 -2.66 20 -3 20 C-3.88220026 15.41255865 -4.21572084 13.06215487 -2 9 C-1.77290345 7.61005968 -1.58894056 6.21270452 -1.4375 4.8125 C-1 1 -1 1 0 0 Z " fill="#F5BA66" transform="translate(333,76)"/>
<path d="M0 0 C8.4 0.98823529 8.4 0.98823529 12 3 C12.625 5.0625 12.625 5.0625 13 7 C13.99 7.33 14.98 7.66 16 8 C16 8.66 16 9.32 16 10 C9.50391324 8.83998451 4.77210994 6.67057569 0 2 C0 1.34 0 0.68 0 0 Z " fill="#F8D29E" transform="translate(39,60)"/>
<path d="M0 0 C0.99 0 1.98 0 3 0 C3.67493341 2.22667765 4.33963044 4.45645977 5 6.6875 C5.37125 7.92886719 5.7425 9.17023437 6.125 10.44921875 C6.87703457 13.5010019 7.19034899 15.88898362 7 19 C6.01 19 5.02 19 4 19 C3.32506659 16.77332235 2.66036956 14.54354023 2 12.3125 C1.62875 11.07113281 1.2575 9.82976563 0.875 8.55078125 C0.12296543 5.4989981 -0.19034899 3.11101638 0 0 Z " fill="#F6BD71" transform="translate(95,16)"/>
<path d="M0 0 C1.95881942 3.27920881 2.05559492 3.76173604 1.125 7.75 C0.75375 8.8225 0.3825 9.895 0 11 C0.66 11 1.32 11 2 11 C2 10.01 2 9.02 2 8 C2.99 7.67 3.98 7.34 5 7 C3.68448876 11.60428934 1.90803514 15.18320388 -1 19 C-1.66 19 -2.32 19 -3 19 C-3.33 19.99 -3.66 20.98 -4 22 C-5.0354051 18.8151065 -4.94040666 16.86968126 -4.00390625 13.671875 C-3.66069336 12.47304687 -3.66069336 12.47304687 -3.31054688 11.25 C-3.06369141 10.425 -2.81683594 9.6 -2.5625 8.75 C-2.31951172 7.90953125 -2.07652344 7.0690625 -1.82617188 6.203125 C-1.22626051 4.13284266 -0.61429181 2.06606103 0 0 Z " fill="#F5B867" transform="translate(102,175)"/>
<path d="M0 0 C0.33 0 0.66 0 1 0 C1.09038099 5.15171623 0.84681133 9.91913204 0 15 C0.99 15 1.98 15 3 15 C3.1546875 13.14375 3.1546875 13.14375 3.3125 11.25 C3.73801682 7.7207134 4.48112592 5.62839034 7 3 C7.1799928 8.21979128 6.97094808 12.07262981 5 17 C2.69 17 0.38 17 -2 17 C-2.25706972 11.08739655 -1.2982126 5.76081841 0 0 Z " fill="#F6C984" transform="translate(540,129)"/>
<path d="M0 0 C0.33 0 0.66 0 1 0 C1.02689216 1.47906892 1.04634621 2.95827483 1.0625 4.4375 C1.07410156 5.26121094 1.08570313 6.08492188 1.09765625 6.93359375 C1 9 1 9 0 10 C-0.33 12.31 -0.66 14.62 -1 17 C-12.88 17 -24.76 17 -37 17 C-37 15.35 -37 13.7 -37 12 C-36.67 13.32 -36.34 14.64 -36 16 C-24.78 16 -13.56 16 -2 16 C-2 13.03 -2 10.06 -2 7 C-1 2.9375 -1 2.9375 0 0 Z " fill="#FAECD7" transform="translate(760,88)"/>
<path d="M0 0 C-0.25197604 3.40167648 -1.16068537 4.13926066 -3.8125 6.4375 C-4.35132813 6.85257813 -4.89015625 7.26765625 -5.4453125 7.6953125 C-7.24721199 9.11472848 -7.24721199 9.11472848 -9.1875 11.8125 C-9.785625 12.534375 -10.38375 13.25625 -11 14 C-11.99 14 -12.98 14 -14 14 C-13.50314143 9.74689068 -11.08038643 7.67968742 -8.125 4.75 C-7.24070312 3.85796875 -6.35640625 2.9659375 -5.4453125 2.046875 C-3 0 -3 0 0 0 Z " fill="#F2BB68" transform="translate(68,160)"/>
<path d="M0 0 C2.31 0 4.62 0 7 0 C6.84518205 2.70931419 6.51827919 4.46584039 4.59765625 6.4453125 C3.10228292 7.67679642 1.5537076 8.8429837 0 10 C-1.32 9.34 -2.64 8.68 -4 8 C-2.68 5.36 -1.36 2.72 0 0 Z " fill="#F4BA64" transform="translate(577,125)"/>
<path d="M0 0 C0.99 0 1.98 0 3 0 C3 6.6 3 13.2 3 20 C2.01 20 1.02 20 0 20 C0 13.4 0 6.8 0 0 Z " fill="#F5BC6E" transform="translate(119,182)"/>
<path d="M0 0 C0.99 0 1.98 0 3 0 C4.82421875 2.484375 4.82421875 2.484375 6.6875 5.75 C7.31011719 6.81734375 7.93273437 7.8846875 8.57421875 8.984375 C10 12 10 12 10 16 C9.01 15.67 8.02 15.34 7 15 C7 14.34 7 13.68 7 13 C6.01 12.67 5.02 12.34 4 12 C3.0859375 10.29296875 3.0859375 10.29296875 2.375 8.1875 C2.13523437 7.50042969 1.89546875 6.81335937 1.6484375 6.10546875 C1.02561319 4.08316571 0.49024188 2.05809091 0 0 Z " fill="#F6C176" transform="translate(73,26)"/>
<path d="M0 0 C-1.22025063 3.6607519 -2.126491 3.92339441 -5.4375 5.6875 C-6.24058594 6.12449219 -7.04367188 6.56148438 -7.87109375 7.01171875 C-10 8 -10 8 -12 8 C-12 8.66 -12 9.32 -12 10 C-13.65 10.33 -15.3 10.66 -17 11 C-16.875 9.25 -16.875 9.25 -16 7 C-11.44028229 3.41736466 -5.92200439 0 0 0 Z " fill="#F6C074" transform="translate(202,60)"/>
<path d="M0 0 C2.05078125 0.03255208 4.1015625 0.06510417 6.15234375 0.09765625 C6.77734375 1.91015625 6.77734375 1.91015625 7.15234375 4.09765625 C6.16234375 5.58265625 6.16234375 5.58265625 5.15234375 7.09765625 C2.51234375 6.76765625 -0.12765625 6.43765625 -2.84765625 6.09765625 C-2.89037725 4.4315372 -2.88829457 2.7638274 -2.84765625 1.09765625 C-1.84765625 0.09765625 -1.84765625 0.09765625 0 0 Z " fill="#F5C57D" transform="translate(637.84765625,127.90234375)"/>
<path d="M0 0 C5.42857143 -0.36190476 5.42857143 -0.36190476 7.875 1.1875 C9.34781139 3.56036279 9.22223194 5.25913944 9 8 C6 4.25 6 4.25 6 2 C4.35 2 2.7 2 1 2 C0.86722656 2.67546875 0.73445313 3.3509375 0.59765625 4.046875 C0.42105469 4.93890625 0.24445313 5.8309375 0.0625 6.75 C-0.11152344 7.63171875 -0.28554688 8.5134375 -0.46484375 9.421875 C-0.92247191 11.62650703 -1.45390014 13.81560057 -2 16 C-5.3 16 -8.6 16 -12 16 C-11.67 15.01 -11.34 14.02 -11 13 C-11 13.66 -11 14.32 -11 15 C-8.36 15 -5.72 15 -3 15 C-2.95101563 14.33613281 -2.90203125 13.67226562 -2.8515625 12.98828125 C-2.10896309 4.21792619 -2.10896309 4.21792619 0 0 Z " fill="#F6C172" transform="translate(491,88)"/>
<path d="M0 0 C0 0.66 0 1.32 0 2 C-0.9178125 2.03738281 -1.835625 2.07476562 -2.78125 2.11328125 C-9.74116814 2.48613401 -15.7219625 2.86098125 -22 6 C-22.99 7.485 -22.99 7.485 -24 9 C-26.2818314 10.48319041 -28.56738224 11.78369112 -31 13 C-28.39038611 7.16303754 -23.80681357 3.4299957 -17.875 1.125 C-12.03376446 -0.6061114 -6.02957319 -0.25162052 0 0 Z " fill="#F8CE95" transform="translate(204,76)"/>
<path d="M0 0 C4.62 0 9.24 0 14 0 C14 6 14 6 13 8 C8.38 8 3.76 8 -1 8 C-1 2 -1 2 0 0 Z M1 2 C0.67 3.65 0.34 5.3 0 7 C3.96 7 7.92 7 12 7 C12 5.35 12 3.7 12 2 C8.37 2 4.74 2 1 2 Z " fill="#FAE4C2" transform="translate(334,76)"/>
<path d="M0 0 C0.99 0 1.98 0 3 0 C3 6.27 3 12.54 3 19 C2.01 19 1.02 19 0 19 C0 12.73 0 6.46 0 0 Z " fill="#F6B968" transform="translate(119,13)"/>
<path d="M0 0 C1.98 0 3.96 0 6 0 C6 2.64 6 5.28 6 8 C5.67 8 5.34 8 5 8 C5 5.69 5 3.38 5 1 C3.68 1 2.36 1 1 1 C1.03480469 1.66386719 1.06960938 2.32773438 1.10546875 3.01171875 C1.38394794 12.09544469 1.38394794 12.09544469 -2 16 C-2.66 16 -3.32 16 -4 16 C-4.98248524 11.9472484 -5.08159574 8.16138263 -5 4 C-4.67 4 -4.34 4 -4 4 C-4 5.98 -4 7.96 -4 10 C-3.34 10 -2.68 10 -2 10 C-1.34 6.7 -0.68 3.4 0 0 Z " fill="#F8C57E" transform="translate(374,125)"/>
<path d="M0 0 C0.66 0.33 1.32 0.66 2 1 C2 4.63 2 8.26 2 12 C1.01 12 0.02 12 -1 12 C-0.67 14.64 -0.34 17.28 0 20 C-2.31 20 -4.62 20 -7 20 C-7.66 18.02 -8.32 16.04 -9 14 C-8.01 14.495 -8.01 14.495 -7 15 C-6.67 15.99 -6.34 16.98 -6 18 C-4.35 18.33 -2.7 18.66 -1 19 C-1.33 18.2575 -1.66 17.515 -2 16.75 C-3 14 -3 14 -3 10 C-2.01 10 -1.02 10 0 10 C-0.185625 8.906875 -0.37125 7.81375 -0.5625 6.6875 C-1 3 -1 3 0 0 Z " fill="#F8CE8F" transform="translate(647,126)"/>
<path d="M0 0 C0.33 0 0.66 0 1 0 C1.28307925 7.24997422 0.50974035 13.90961228 -1 21 C0.98 21 2.96 21 5 21 C5.495 16.545 5.495 16.545 6 12 C7.32 12.33 8.64 12.66 10 13 C10 13.66 10 14.32 10 15 C9.01 15.33 8.02 15.66 7 16 C6.67 17.98 6.34 19.96 6 22 C3.36 22 0.72 22 -2 22 C-2.02696365 20.20841511 -2.04637917 18.41671527 -2.0625 16.625 C-2.07410156 15.62726563 -2.08570313 14.62953125 -2.09765625 13.6015625 C-2 11 -2 11 -1 9 C-0.77532169 7.46331135 -0.59203195 5.92031946 -0.4375 4.375 C-0.35371094 3.55773437 -0.26992188 2.74046875 -0.18359375 1.8984375 C-0.12300781 1.27195312 -0.06242188 0.64546875 0 0 Z " fill="#FAE2BF" transform="translate(628,125)"/>
<path d="M0 0 C0 0.33 0 0.66 0 1 C-0.66386719 1.00257812 -1.32773438 1.00515625 -2.01171875 1.0078125 C-7.21154204 1.1045679 -7.21154204 1.1045679 -11.70703125 3.3671875 C-12.8832155 4.85251987 -13.94904854 6.42357281 -15 8 C-15.99 8.495 -15.99 8.495 -17 9 C-17.51748699 17.00279793 -17.51748699 17.00279793 -14 24 C-13.67 24.66 -13.34 25.32 -13 26 C-15.34086928 25.06365229 -16.72114869 24.43819491 -18.09375 22.28125 C-19.95074373 17.60674853 -19.89408588 12.90184147 -19 8 C-14.60247819 -0.03558303 -8.57474278 -1.13489243 0 0 Z " fill="#F8D8AA" transform="translate(202,93)"/>
<path d="M0 0 C2.64 0 5.28 0 8 0 C8.3690205 9.41002278 8.3690205 9.41002278 6 14 C3.36 14 0.72 14 -2 14 C-1.67 10.7 -1.34 7.4 -1 4 C-0.67 4 -0.34 4 0 4 C0 6.64 0 9.28 0 12 C1.65 12 3.3 12 5 12 C5.66 8.37 6.32 4.74 7 1 C4.69 1.33 2.38 1.66 0 2 C0 1.34 0 0.68 0 0 Z " fill="#FAE2BF" transform="translate(449,129)"/>
<path d="M0 0 C0.33 0.99 0.66 1.98 1 3 C0.3503125 3.5878125 0.3503125 3.5878125 -0.3125 4.1875 C-2.13582629 6.01796997 -2.13582629 6.01796997 -3.5625 8.625 C-5 11 -5 11 -7 12 C-7.65555119 14.52733235 -7.65555119 14.52733235 -8 17 C-9.32 17.33 -10.64 17.66 -12 18 C-10.5199653 13.83740241 -8.4553071 10.41490692 -6 6.75 C-4.948125 5.16445313 -4.948125 5.16445313 -3.875 3.546875 C-2 1 -2 1 0 0 Z " fill="#F6BD76" transform="translate(137,28)"/>
<path d="M0 0 C1.98 0 3.96 0 6 0 C6 0.66 6 1.32 6 2 C7.98 2 9.96 2 12 2 C12 2.99 12 3.98 12 5 C8.04 5 4.08 5 0 5 C0 3.35 0 1.7 0 0 Z " fill="#FCE8CB" transform="translate(671,129)"/>
<path d="M0 0 C1.11563018 3.37046018 0.86843709 5.74019241 0.125 9.1875 C-0.05804688 10.06792969 -0.24109375 10.94835937 -0.4296875 11.85546875 C-1 14 -1 14 -2 15 C-3.68608966 15.07205511 -5.37500659 15.08386068 -7.0625 15.0625 C-7.98160156 15.05347656 -8.90070313 15.04445313 -9.84765625 15.03515625 C-10.55792969 15.02355469 -11.26820313 15.01195313 -12 15 C-11.67 12.36 -11.34 9.72 -11 7 C-10.67 7 -10.34 7 -10 7 C-10 8.98 -10 10.96 -10 13 C-7.36 13 -4.72 13 -2 13 C-2.02320313 12.39671875 -2.04640625 11.7934375 -2.0703125 11.171875 C-2.09738281 9.97304687 -2.09738281 9.97304687 -2.125 8.75 C-2.14820313 7.96109375 -2.17140625 7.1721875 -2.1953125 6.359375 C-1.9828378 3.79268059 -1.28654105 2.2083933 0 0 Z " fill="#F3C276" transform="translate(390,89)"/>
<path d="M0 0 C0.99 0 1.98 0 3 0 C2.57209311 4.70697582 0.44780671 8.775232 -3 12 C-4.32 12 -5.64 12 -7 12 C-6.34 10.35 -5.68 8.7 -5 7 C-4.34 7 -3.68 7 -3 7 C-2.690625 6.21625 -2.38125 5.4325 -2.0625 4.625 C-1 2 -1 2 0 0 Z " fill="#FBF1E3" transform="translate(156,107)"/>
<path d="M0 0 C0.66 1.32 1.32 2.64 2 4 C2.66 4 3.32 4 4 4 C3.46939601 8.51013391 1.69113883 11.38378219 -1 15 C-1.33 15 -1.66 15 -2 15 C-2.21755666 9.5610835 -2.10428384 5.12919186 0 0 Z " fill="#FBF0DE" transform="translate(569,125)"/>
<path d="M0 0 C0.33 0 0.66 0 1 0 C1 1.98 1 3.96 1 6 C3.97 6 6.94 6 10 6 C10 6.99 10 7.98 10 9 C4.72 9 -0.56 9 -6 9 C-6 8.67 -6 8.34 -6 8 C-4.02 8 -2.04 8 0 8 C0 5.36 0 2.72 0 0 Z " fill="#F4BE6C" transform="translate(482,137)"/>
<path d="M0 0 C0.66 0.33 1.32 0.66 2 1 C2 5.29 2 9.58 2 14 C1.34 14 0.68 14 0 14 C0 14.66 0 15.32 0 16 C-1.98 16 -3.96 16 -6 16 C-6.33 16.66 -6.66 17.32 -7 18 C-7 17.01 -7 16.02 -7 15 C-5.02 15 -3.04 15 -1 15 C-0.67 10.05 -0.34 5.1 0 0 Z " fill="#F8D095" transform="translate(708,74)"/>
<path d="M0 0 C0.33 0.66 0.66 1.32 1 2 C6.61 2 12.22 2 18 2 C18 2.66 18 3.32 18 4 C11.73 4 5.46 4 -1 4 C-0.67 2.68 -0.34 1.36 0 0 Z " fill="#F7BE73" transform="translate(153,118)"/>
<path d="M0 0 C0.66 0 1.32 0 2 0 C4 7.625 4 7.625 4 11 C7.3 11 10.6 11 14 11 C14.33 8.69 14.66 6.38 15 4 C16.08174162 7.36541838 15.92538169 8.29847322 15 12 C11.04 12 7.08 12 3 12 C2.34 9.36 1.68 6.72 1 4 C0.34 4 -0.32 4 -1 4 C-0.67 2.68 -0.34 1.36 0 0 Z " fill="#F7D39D" transform="translate(363,134)"/>
<path d="M0 0 C0.33 1.32 0.66 2.64 1 4 C1.33 4.33 1.66 4.66 2 5 C2.47058824 10.41176471 2.47058824 10.41176471 0.5 12.875 C-0.2425 13.431875 -0.2425 13.431875 -1 14 C-1.33 12.68 -1.66 11.36 -2 10 C-2.99 10.33 -3.98 10.66 -5 11 C-5 9.02 -5 7.04 -5 5 C-4.01 6.485 -4.01 6.485 -3 8 C-2.01 5.36 -1.02 2.72 0 0 Z " fill="#F7BD6E" transform="translate(360,129)"/>
<path d="M0 0 C0.33 0.66 0.66 1.32 1 2 C0.67 2.99 0.34 3.98 0 5 C7.92 5 15.84 5 24 5 C24 5.33 24 5.66 24 6 C15.09 6 6.18 6 -3 6 C-2 2 -2 2 0 0 Z " fill="#F5BF71" transform="translate(20,87)"/>
<path d="M0 0 C1.32 0 2.64 0 4 0 C4.33 1.32 4.66 2.64 5 4 C7.31 4.33 9.62 4.66 12 5 C12 5.33 12 5.66 12 6 C7.71 6 3.42 6 -1 6 C-0.67 4.02 -0.34 2.04 0 0 Z " fill="#F2B04A" transform="translate(666,130)"/>
<path d="M0 0 C2.0078125 1.0625 2.0078125 1.0625 4 3 C4.2421875 6.25 4.2421875 6.25 3.875 10 C3.76929688 11.2375 3.66359375 12.475 3.5546875 13.75 C3 17 3 17 1 20 C1 15.71 1 11.42 1 7 C0.34 6.67 -0.32 6.34 -1 6 C-0.67 4.02 -0.34 2.04 0 0 Z " fill="#F3BA63" transform="translate(354,72)"/>
<path d="M0 0 C0.33 0 0.66 0 1 0 C1.027193 1.58323688 1.04648306 3.16661062 1.0625 4.75 C1.07410156 5.63171875 1.08570313 6.5134375 1.09765625 7.421875 C1.00826198 9.7818838 0.66912821 11.74498524 0 14 C2.64 14 5.28 14 8 14 C8 14.33 8 14.66 8 15 C4.7 15 1.4 15 -2 15 C-1 4.28571429 -1 4.28571429 0 0 Z " fill="#F6C67F" transform="translate(675,89)"/>
<path d="M0 0 C0.5775 0.226875 1.155 0.45375 1.75 0.6875 C1.42 2.3375 1.09 3.9875 0.75 5.6875 C0.193125 5.48125 -0.36375 5.275 -0.9375 5.0625 C-3.909538 4.58054789 -5.56979941 5.42184972 -8.25 6.6875 C-6.65594781 2.8352072 -4.57967475 -0.63606594 0 0 Z " fill="#F5B763" transform="translate(29.25,80.3125)"/>
<path d="M0 0 C0 0.66 0 1.32 0 2 C0.66 2 1.32 2 2 2 C2 2.66 2 3.32 2 4 C-2.62 4 -7.24 4 -12 4 C-10.68 3.34 -9.36 2.68 -8 2 C-7.34 1.62875 -6.68 1.2575 -6 0.875 C-4 0 -4 0 0 0 Z " fill="#F6B152" transform="translate(346,72)"/>
<path d="M0 0 C0.99 0.33 1.98 0.66 3 1 C3 2.65 3 4.3 3 6 C3.66 6 4.32 6 5 6 C5 6.66 5 7.32 5 8 C3.33388095 8.042721 1.66617115 8.04063832 0 8 C-1 7 -1 7 -1.125 4 C-1 1 -1 1 0 0 Z " fill="#F1AE46" transform="translate(562,137)"/>
<path d="M0 0 C1.75 0.125 1.75 0.125 4 1 C6.25 4.0625 6.25 4.0625 8 7 C7.67 7.66 7.34 8.32 7 9 C4.50638429 7.79618552 2.31856917 6.54571278 0 5 C-0.1875 2.375 -0.1875 2.375 0 0 Z " fill="#F8C787" transform="translate(157,172)"/>
<path d="M0 0 C2.64 0 5.28 0 8 0 C8.33 3.96 8.66 7.92 9 12 C8.01 12.66 7.02 13.32 6 14 C5.92345464 9.48382401 5.89771304 5.40914783 7 1 C4.69 1 2.38 1 0 1 C0 0.67 0 0.34 0 0 Z " fill="#FAE3C0" transform="translate(350,124)"/>
<path d="M0 0 C-0.57363911 3.87206399 -2.34105893 6.18465063 -5 9 C-5.99 9 -6.98 9 -8 9 C-7.53918323 4.85264908 -4.48412936 0 0 0 Z " fill="#F6BC6A" transform="translate(181,46)"/>
<path d="M0 0 C1.64826111 2.96687001 2.44271087 5.65626525 3 9 C1.35 9 -0.3 9 -2 9 C-2.66 7.35 -3.32 5.7 -4 4 C-3.01 4 -2.02 4 -1 4 C-0.67 2.68 -0.34 1.36 0 0 Z " fill="#F3B353" transform="translate(643,136)"/>
<path d="M0 0 C3.96 0 7.92 0 12 0 C12 0.66 12 1.32 12 2 C11.01 2 10.02 2 9 2 C8.67 4.31 8.34 6.62 8 9 C7.34 8.67 6.68 8.34 6 8 C6.33 5.69 6.66 3.38 7 1 C4.69 1 2.38 1 0 1 C0 0.67 0 0.34 0 0 Z " fill="#F4BA62" transform="translate(671,134)"/>
<path d="M0 0 C4.6875 3.61328125 4.6875 3.61328125 6 5 C6 5.99 6 6.98 6 8 C3.23737447 7.6189482 2.15856106 7.16402868 0.1875 5.125 C-0.204375 4.42375 -0.59625 3.7225 -1 3 C-0.67 2.01 -0.34 1.02 0 0 Z " fill="#F6C47B" transform="translate(182,167)"/>
<path d="M0 0 C2.31 0.33 4.62 0.66 7 1 C7.33 2.32 7.66 3.64 8 5 C6.35 5 4.7 5 3 5 C2.67 4.01 2.34 3.02 2 2 C1.34 2 0.68 2 0 2 C0 1.34 0 0.68 0 0 Z " fill="#F5C174" transform="translate(194,150)"/>
<path d="M0 0 C0.66 0.66 1.32 1.32 2 2 C2.99 1.34 3.98 0.68 5 0 C4.34 3.3 3.68 6.6 3 10 C2.34 10 1.68 10 1 10 C0.67 6.7 0.34 3.4 0 0 Z " fill="#FBEEDB" transform="translate(369,125)"/>
<path d="M0 0 C0.33 0.99 0.66 1.98 1 3 C1.99 2.67 2.98 2.34 4 2 C3.34 3.65 2.68 5.3 2 7 C1.34 7 0.68 7 0 7 C-0.33 7.99 -0.66 8.98 -1 10 C-2.46726798 6.18510326 -1.43336419 3.70988378 0 0 Z " fill="#F7C57F" transform="translate(99,187)"/>
<path d="M0 0 C0.66 0 1.32 0 2 0 C1.67 2.31 1.34 4.62 1 7 C-0.32 7.33 -1.64 7.66 -3 8 C-2.67 6.02 -2.34 4.04 -2 2 C-1.34 2 -0.68 2 0 2 C0 1.34 0 0.68 0 0 Z " fill="#F6BA6E" transform="translate(76,181)"/>
<path d="M0 0 C-0.39803561 2.88575819 -0.79009069 3.82189513 -3.0625 5.75 C-3.701875 6.1625 -4.34125 6.575 -5 7 C-5 6.34 -5 5.68 -5 5 C-5.66 4.67 -6.32 4.34 -7 4 C-3.375 0 -3.375 0 0 0 Z " fill="#F4C173" transform="translate(68,160)"/>
<path d="M0 0 C0 4.02147098 -1.68383605 6.82309945 -4 10 C-6.25 11.4375 -6.25 11.4375 -8 12 C-6.75023244 8.34683329 -6.32901247 7.21934164 -3 5 C-2.63837971 3.67405895 -2.30271961 2.34061543 -2 1 C-1.34 0.67 -0.68 0.34 0 0 Z " fill="#F3B766" transform="translate(162,106)"/>
<path d="M0 0 C1 2 1 2 0.25 4.375 C-0.95138534 6.89790922 -2.14521899 8.91337136 -4 11 C-4.66 11 -5.32 11 -6 11 C-4.54955729 6.89041233 -2.48889248 3.56741255 0 0 Z " fill="#F5C380" transform="translate(108,70)"/>
<path d="M0 0 C0 3.95875396 -1.21313946 6.49009536 -3 10 C-5.1875 11.4375 -5.1875 11.4375 -7 12 C-5.44298069 7.32894208 -2.91552627 3.91294315 0 0 Z " fill="#F6C686" transform="translate(120,52)"/>
<path d="M0 0 C0.99 0 1.98 0 3 0 C3.99 2.31 4.98 4.62 6 7 C5.01 7.33 4.02 7.66 3 8 C0 3.375 0 3.375 0 0 Z " fill="#F8B661" transform="translate(73,26)"/>
<path d="M0 0 C2 3 2 3 2 6 C2.66 6 3.32 6 4 6 C4 7.65 4 9.3 4 11 C3.01 11 2.02 11 1 11 C0.67 7.37 0.34 3.74 0 0 Z " fill="#F6BB68" transform="translate(142,188)"/>
<path d="M0 0 C0 1.32 0 2.64 0 4 C-1.65 4.33 -3.3 4.66 -5 5 C-5.66 4.01 -6.32 3.02 -7 2 C-4 0 -4 0 0 0 Z " fill="#F6C783" transform="translate(56,144)"/>
<path d="M0 0 C1.98 0 3.96 0 6 0 C6 1.32 6 2.64 6 4 C4.02 4 2.04 4 0 4 C0 2.68 0 1.36 0 0 Z " fill="#FDF1E1" transform="translate(636,129)"/>
<path d="M0 0 C0.66 0 1.32 0 2 0 C2.33 1.98 2.66 3.96 3 6 C1.02 6 -0.96 6 -3 6 C-2.01 4.02 -1.02 2.04 0 0 Z " fill="#F2AD41" transform="translate(383,96)"/>
<path d="M0 0 C0.99 0.33 1.98 0.66 3 1 C3 1.99 3 2.98 3 4 C3.99 4.33 4.98 4.66 6 5 C5.34 5 4.68 5 4 5 C4.33 6.98 4.66 8.96 5 11 C3 10 3 10 2.1484375 7.71484375 C1.89320313 6.79832031 1.63796875 5.88179688 1.375 4.9375 C1.11460937 4.01839844 0.85421875 3.09929687 0.5859375 2.15234375 C0.39257812 1.44207031 0.19921875 0.73179688 0 0 Z " fill="#F7C177" transform="translate(375,76)"/>
<path d="M0 0 C3.3 0 6.6 0 10 0 C9.67 0.99 9.34 1.98 9 3 C9 2.34 9 1.68 9 1 C7.39125 1.4640625 7.39125 1.4640625 5.75 1.9375 C3.17133778 2.66812096 0.60487898 3.37482904 -2 4 C-1.34 2.68 -0.68 1.36 0 0 Z " fill="#F7C478" transform="translate(394,71)"/>
<path d="M0 0 C0.33 0.66 0.66 1.32 1 2 C0.67 2.99 0.34 3.98 0 5 C0.66 5 1.32 5 2 5 C1.34 6.32 0.68 7.64 0 9 C-0.99 9 -1.98 9 -3 9 C-3 7.68 -3 6.36 -3 5 C-2.34 5 -1.68 5 -1 5 C-0.67 3.35 -0.34 1.7 0 0 Z " fill="#F8CC8D" transform="translate(160,34)"/>
<path d="M0 0 C1.32 0 2.64 0 4 0 C4 0.66 4 1.32 4 2 C4.99 2.33 5.98 2.66 7 3 C6.01 3.495 6.01 3.495 5 4 C4.01 3.67 3.02 3.34 2 3 C2 3.66 2 4.32 2 5 C1.01 4.67 0.02 4.34 -1 4 C-0.67 2.68 -0.34 1.36 0 0 Z " fill="#F9CE91" transform="translate(192,147)"/>
<path d="M0 0 C0.66 0.99 1.32 1.98 2 3 C2.66 2.67 3.32 2.34 4 2 C3.67 2.99 3.34 3.98 3 5 C2.34 5 1.68 5 1 5 C0.67 6.65 0.34 8.3 0 10 C-0.33 9.34 -0.66 8.68 -1 8 C-0.67 7.01 -0.34 6.02 0 5 C-0.66 5 -1.32 5 -2 5 C-1.34 3.35 -0.68 1.7 0 0 Z " fill="#F8DBB4" transform="translate(159,102)"/>
<path d="M0 0 C2 2 2 2 2 5 C-4.0546875 5.1953125 -4.0546875 5.1953125 -6 5 C-6.66 4.34 -7.32 3.68 -8 3 C-5.36 3 -2.72 3 0 3 C0 2.01 0 1.02 0 0 Z " fill="#F5BE6E" transform="translate(705,99)"/>
<path d="M0 0 C1 3 1 3 0.375 5 C-1.36380086 7.52916489 -3.31063318 8.58454378 -6 10 C-4.34832443 6.4213696 -2.21713508 3.25179812 0 0 Z " fill="#F4C37D" transform="translate(99,84)"/>
<path d="M0 0 C0.66 1.32 1.32 2.64 2 4 C3.65 2.68 5.3 1.36 7 0 C6.67 1.65 6.34 3.3 6 5 C4.35 5.33 2.7 5.66 1 6 C0.67 4.02 0.34 2.04 0 0 Z " fill="#F6C783" transform="translate(385,75)"/>
<path d="M0 0 C0.33 1.32 0.66 2.64 1 4 C2.98 4.495 2.98 4.495 5 5 C5 6.65 5 8.3 5 10 C2.5 8.9375 2.5 8.9375 0 7 C-0.3125 3.3125 -0.3125 3.3125 0 0 Z " fill="#F6B75F" transform="translate(634,130)"/>
<path d="M0 0 C0.33 0 0.66 0 1 0 C1.21755666 5.4389165 1.10428384 9.87080814 -1 15 C-1.33 15 -1.66 15 -2 15 C-2.19392201 9.47322267 -1.7479503 5.24385089 0 0 Z " fill="#FADBAF" transform="translate(760,88)"/>
<path d="M0 0 C0.66 0 1.32 0 2 0 C4 3 4 3 4 6 C2.35 5.67 0.7 5.34 -1 5 C-0.67 3.35 -0.34 1.7 0 0 Z " fill="#F9C681" transform="translate(165,183)"/>
<path d="M0 0 C3.37462715 0.54723683 5.08235 1.0549 8 3 C8 3.66 8 4.32 8 5 C5.125 4.75 5.125 4.75 2 4 C0.625 1.9375 0.625 1.9375 0 0 Z " fill="#F6B662" transform="translate(47,65)"/>
<path d="M0 0 C0.66 0 1.32 0 2 0 C1.88590407 1.45922693 1.75834456 2.91740598 1.625 4.375 C1.55539063 5.18710937 1.48578125 5.99921875 1.4140625 6.8359375 C1 9 1 9 -1 11 C-1.02688151 9.35425434 -1.04634123 7.70838587 -1.0625 6.0625 C-1.07410156 5.14597656 -1.08570313 4.22945312 -1.09765625 3.28515625 C-1 1 -1 1 0 0 Z " fill="#FCECD6" transform="translate(144,15)"/>
<path d="M0 0 C1.32 0.66 2.64 1.32 4 2 C2.68 3.32 1.36 4.64 0 6 C-0.66 5.67 -1.32 5.34 -2 5 C-2 4.34 -2 3.68 -2 3 C-1.34 3 -0.68 3 0 3 C0 2.01 0 1.02 0 0 Z " fill="#FCEFDE" transform="translate(165,93)"/>
<path d="M0 0 C2.375 0.3125 2.375 0.3125 5 1 C5.66 1.99 6.32 2.98 7 4 C5.35 4 3.7 4 2 4 C1.34 2.68 0.68 1.36 0 0 Z " fill="#F6B969" transform="translate(39,60)"/>
<path d="M0 0 C2.5 1.3125 2.5 1.3125 5 3 C5 3.99 5 4.98 5 6 C3.0625 5.25 3.0625 5.25 1 4 C0.25 1.875 0.25 1.875 0 0 Z " fill="#F4B763" transform="translate(177,164)"/>
<path d="M0 0 C1.32 0 2.64 0 4 0 C3.6875 1.9375 3.6875 1.9375 3 4 C2.01 4.33 1.02 4.66 0 5 C0 3.35 0 1.7 0 0 Z " fill="#F7AB41" transform="translate(666,130)"/>
<path d="M0 0 C0.99 0 1.98 0 3 0 C2.67 1.65 2.34 3.3 2 5 C0.68 5 -0.64 5 -2 5 C-1.34 3.35 -0.68 1.7 0 0 Z " fill="#FBEAD4" transform="translate(151,114)"/>
<path d="M0 0 C1.65 0 3.3 0 5 0 C5 0.66 5 1.32 5 2 C4.071875 2.4021875 4.071875 2.4021875 3.125 2.8125 C0.7004767 3.95556848 0.7004767 3.95556848 -1 7 C-0.67 4.69 -0.34 2.38 0 0 Z " fill="#FCF2E2" transform="translate(492,90)"/>
<path d="M0 0 C0.66 0 1.32 0 2 0 C1.67 2.64 1.34 5.28 1 8 C0.01 7.01 -0.98 6.02 -2 5 C-1.34 3.35 -0.68 1.7 0 0 Z " fill="#F8CD94" transform="translate(142,18)"/>
</svg>
